<svg viewBox="0 0 18 18" fill="none" xmlns="http://www.w3.org/2000/svg">
<path d="M15.037 17.0978C15.531 17.0978 16.0119 16.9134 16.379 16.5786C16.7894 16.2043 17.25 15.5917 17.25 15.0363V12.375C17.25 11.365 16.2711 10.5975 15.2716 10.485C14.2041 10.3646 12.75 9.375 11.3235 10.2306C11.3235 10.2306 10.875 10.5 10.5 10.875C8.43481 9.74512 8.25477 9.56478 7.125 7.5C8.25 6.375 8.3351 5.62877 7.875 4.125C7.70248 3.56078 7.56633 3.21311 7.5 2.625C7.38753 1.62542 6.4036 0.75 5.39361 0.75H2.73238C2.17692 0.75 1.6435 0.985348 1.26921 1.39579C0.893268 1.80778 0.707152 2.36324 0.758342 2.91953C0.934055 4.82909 1.44018 6.67283 2.26271 8.39968C3.06228 10.0785 4.13674 11.5988 5.45644 12.9185C6.77604 14.2381 7.69615 14.7855 9.375 15.585C11.1019 16.4074 12.9457 16.9136 14.8553 17.0894C14.9159 17.0951 14.9765 17.0978 15.037 17.0978ZM13.1492 11.3857C13.7909 11.582 14.4552 11.7197 15.124 11.7951C15.4559 11.8325 15.7064 12.1158 15.7064 12.4542V15.1155C15.7064 15.304 15.6297 15.4776 15.4904 15.6045C15.3496 15.7332 15.1669 15.7943 14.9762 15.7765C8.78251 15.1155 3 9.75 2.25 3C2.20665 2.53048 2.6744 2.06836 3.13184 2.06836H5.39361C5.73196 2.06836 6.0153 2.31874 6.05279 2.65081C6.12808 3.31957 6.26579 3.98389 6.462 4.62557C6.53513 4.86452 6.92242 5.45258 6.75 5.625L5.625 6.75C5.625 6.75 5.25 7.125 5.25 7.5C5.25 7.875 7.875 11.625 10.125 12.75C10.6266 13.0008 10.875 12.75 10.875 12.75C11.6824 11.8217 11.9312 11.0137 13.1492 11.3857Z" fill="currentColor"/>
</svg>
