<svg viewBox="0 0 121 56" fill="none" xmlns="http://www.w3.org/2000/svg">
<path fill-rule="evenodd" clip-rule="evenodd" d="M0.893066 35.2075L2.66421 43.3396L4.24891 50.5849L8.42508 43.1887L6.63529 35.2075H0.893066Z" fill="currentColor"/>
<path fill-rule="evenodd" clip-rule="evenodd" d="M106.528 38.4529L102.743 44.8491L104.365 52.3963V52.434V52.4152L109.511 43.3585H112.363L113.314 47.6038H108.672L105.894 52.4529H120.175L117.154 38.4529H106.528Z" fill="currentColor"/>
<path fill-rule="evenodd" clip-rule="evenodd" d="M22.1281 38.4529L17.635 46.434L20.4875 51.2642L25.0552 43.3585H27.9076L28.8585 47.6038H24.1976L21.4383 52.4529H35.6447L32.6245 38.4529H22.1281Z" fill="currentColor"/>
<path fill-rule="evenodd" clip-rule="evenodd" d="M4.78955 52.4529H10.4758L12.1724 49.4151V49.3963L15.6774 55.434H21.3451L14.9317 44.4906L18.3621 38.4529H12.7131L4.78955 52.4529Z" fill="currentColor"/>
<path fill-rule="evenodd" clip-rule="evenodd" d="M83.6333 38.4529H77.8351V38.4906L80.8927 52.4529H102.351L99.2566 38.4529H93.4771L95.4906 47.6038H93.5331L91.5009 38.4529H85.7027L87.679 47.6038H85.6468L83.6333 38.4529Z" fill="currentColor"/>
<path fill-rule="evenodd" clip-rule="evenodd" d="M34.6753 38.4529L35.7193 43.3397H40.0819L42.0395 52.4529H47.819L45.8428 43.3397H50.1308L49.0681 38.4529H34.6753Z" fill="currentColor"/>
<path fill-rule="evenodd" clip-rule="evenodd" d="M79.308 52.4529L77.8538 46.0567L76.2504 38.5095V38.4717L76.2318 38.4906L72.3726 45.3019L72.8573 47.5472H68.2337L67.2829 43.3208H71.9438L74.703 38.4529H60.422L61.4102 43.0189H57.9052L56.8984 38.4906L56.8798 38.4529H51.0443L51.063 38.4906L54.1205 52.4529H59.9187L58.9678 47.9246L58.9492 47.8868H62.4728L63.4609 52.4529H79.308Z" fill="currentColor"/>
<path d="M78.0961 0.509521L77.5741 1.05669L73.3607 5.49065H78.0775L60.6271 23.8869L40.5666 0.509521H33.5007L56.134 26.9435H33.5007V31.6793H86.5044V26.9435H65.1575L81.8249 9.37745V14.3586L86.5044 9.43405V0.509521H78.0961Z" fill="currentColor"/>
</svg>
