<svg viewBox="0 0 22 22" fill="none" xmlns="http://www.w3.org/2000/svg">
<path fill-rule="evenodd" clip-rule="evenodd" d="M11 8C9.34315 8 8 9.34315 8 11C8 12.6569 9.34315 14 11 14C12.6569 14 14 12.6569 14 11C14 9.34315 12.6569 8 11 8ZM6 11C6 8.23858 8.23858 6 11 6C13.7614 6 16 8.23858 16 11C16 13.7614 13.7614 16 11 16C8.23858 16 6 13.7614 6 11Z" fill="currentColor"/>
<path fill-rule="evenodd" clip-rule="evenodd" d="M6.30009 1.05523C8.54474 -0.00552642 11.0822 -0.275766 13.4999 0.288455C15.9176 0.852675 18.0734 2.21817 19.6166 4.16291C21.1599 6.10765 21.9999 8.51726 22 10.9999V12C22 13.0609 21.5786 14.0783 20.8284 14.8284C20.0783 15.5786 19.0609 16 18 16C16.9391 16 15.9217 15.5786 15.1716 14.8284C14.4214 14.0783 14 13.0609 14 12V6.99999C14 6.44771 14.4477 5.99999 15 5.99999C15.5523 5.99999 16 6.44771 16 6.99999V12C16 12.5304 16.2107 13.0391 16.5858 13.4142C16.9609 13.7893 17.4696 14 18 14C18.5304 14 19.0392 13.7893 19.4142 13.4142C19.7893 13.0391 20 12.5304 20 12V11.0001C20 11 20 11.0001 20 11.0001C19.9999 8.9688 19.3126 6.99727 18.05 5.40613C16.7873 3.81498 15.0235 2.69776 13.0454 2.23612C11.0673 1.77449 8.99115 1.99559 7.15462 2.86348C5.3181 3.73138 3.82917 5.19501 2.92994 7.0164C2.03072 8.8378 1.77408 10.9098 2.20176 12.8956C2.62944 14.8813 3.71629 16.664 5.28558 17.9537C6.85487 19.2434 8.8143 19.9644 10.8453 19.9993C12.8762 20.0342 14.8593 19.3811 16.472 18.1461C16.9105 17.8103 17.5382 17.8935 17.874 18.332C18.2097 18.7705 18.1265 19.3981 17.688 19.7339C15.7169 21.2434 13.2932 22.0417 10.8109 21.999C8.32859 21.9563 5.93372 21.0752 4.0157 19.4988C2.09768 17.9225 0.769317 15.7437 0.246595 13.3167C-0.276127 10.8896 0.03754 8.35717 1.13659 6.13102C2.23565 3.90488 4.05545 2.11599 6.30009 1.05523Z" fill="currentColor"/>
</svg>
