<svg viewBox="0 0 37 37" fill="none" xmlns="http://www.w3.org/2000/svg">
<path fill-rule="evenodd" clip-rule="evenodd" d="M34.5887 0.603027H2.33687C1.31989 0.63425 0.518099 1.48419 0.545866 2.50067V28.5509C0.518099 29.5709 1.31989 30.4173 2.33687 30.452H12.7184L11.5244 32.8388H9.50432C8.5151 32.8388 7.71333 33.6402 7.71333 34.6289C7.71333 35.6177 8.5151 36.4191 9.50432 36.4191H27.4212C28.4104 36.4191 29.2122 35.6177 29.2122 34.6289C29.2122 33.6402 28.4104 32.8388 27.4212 32.8388H25.4011L24.2071 30.452H34.5887C35.6056 30.4173 36.4074 29.5709 36.3797 28.5509V2.50067C36.4074 1.48419 35.6056 0.63425 34.5887 0.603027ZM2.33687 1.79643H34.5887C34.9462 1.83459 35.21 2.14334 35.1857 2.50067V25.6749H1.73986V2.50067C1.71557 2.14334 1.97937 1.83459 2.33687 1.79643ZM28.0182 34.6289C28.0182 34.9585 27.751 35.2256 27.4212 35.2256H9.50432C9.17458 35.2256 8.90733 34.9585 8.90733 34.6289C8.90733 34.2994 9.17458 34.0322 9.50432 34.0322H27.4212C27.751 34.0322 28.0182 34.2994 28.0182 34.6289ZM24.0648 32.8388H12.8607L14.0547 30.452H22.8708L24.0648 32.8388ZM34.5887 29.2551H2.33687C1.97937 29.2205 1.71557 28.9082 1.73986 28.5509V26.8683H35.1857V28.5509C35.21 28.9082 34.9462 29.2205 34.5887 29.2551Z" fill="currentColor"/>
<path fill-rule="evenodd" clip-rule="evenodd" d="M4.12778 8.58911C3.79804 8.58911 3.53076 8.85625 3.53076 9.18582C3.53076 9.5154 3.79804 9.78252 4.12778 9.78252H6.51928C6.84902 9.78252 7.11627 9.5154 7.11627 9.18582C7.11627 8.85625 6.84902 8.58911 6.51928 8.58911H5.92226V4.41219C5.92226 4.16935 5.77648 3.95078 5.55086 3.86058C5.32872 3.76691 5.07187 3.81895 4.9018 3.98894L3.70778 5.18235C3.4787 5.41825 3.48218 5.78947 3.71473 6.01844C3.94382 6.25087 4.3152 6.25433 4.55123 6.02536L4.72477 5.8519V8.58911H4.12778Z" fill="currentColor"/>
<path fill-rule="evenodd" clip-rule="evenodd" d="M4.12778 22.917C3.79804 22.917 3.53076 23.1841 3.53076 23.5137C3.53076 23.8433 3.79804 24.1104 4.12778 24.1104H6.51928C6.84902 24.1104 7.11627 23.8433 7.11627 23.5137C7.11627 23.1841 6.84902 22.917 6.51928 22.917H5.92226V18.7366C5.92226 18.4972 5.77648 18.2787 5.55086 18.1885C5.32872 18.0948 5.07187 18.1468 4.9018 18.3168L3.70778 19.5102C3.4787 19.7427 3.48218 20.1173 3.71473 20.3463C3.94382 20.5753 4.3152 20.5787 4.55123 20.3532L4.72477 20.1798V22.917H4.12778Z" fill="currentColor"/>
<path fill-rule="evenodd" clip-rule="evenodd" d="M5.32179 16.9463C6.31449 16.9463 7.11627 16.1449 7.11627 15.1562V12.7694C7.11627 11.7807 6.31449 10.9758 5.32179 10.9758C4.33257 10.9758 3.53076 11.7807 3.53076 12.7694V15.1562C3.53076 16.1449 4.33257 16.9463 5.32179 16.9463ZM4.72477 12.7694C4.72477 12.4398 4.99205 12.1727 5.32179 12.1727C5.65153 12.1727 5.92226 12.4398 5.92226 12.7694V15.1562C5.92226 15.4858 5.65153 15.7529 5.32179 15.7529C4.99205 15.7529 4.72477 15.4858 4.72477 15.1562V12.7694Z" fill="currentColor"/>
<path fill-rule="evenodd" clip-rule="evenodd" d="M10.5804 9.78246C11.5696 9.78246 12.3714 8.98108 12.3714 7.99236V5.60555C12.3714 4.61683 11.5696 3.81543 10.5804 3.81543C9.59116 3.81543 8.78589 4.61683 8.78589 5.60555V7.99236C8.78589 8.98108 9.59116 9.78246 10.5804 9.78246ZM9.98336 5.60555C9.98336 5.27597 10.2506 5.00883 10.5804 5.00883C10.9101 5.00883 11.1774 5.27597 11.1774 5.60555V7.99236C11.1774 8.32193 10.9101 8.58905 10.5804 8.58905C10.2506 8.58905 9.98336 8.32193 9.98336 7.99236V5.60555Z" fill="currentColor"/>
<path fill-rule="evenodd" clip-rule="evenodd" d="M10.5804 24.1102C11.5696 24.1102 12.3714 23.3088 12.3714 22.3201V19.9332C12.3714 18.941 11.5696 18.1396 10.5804 18.1396C9.59116 18.1396 8.78589 18.941 8.78589 19.9332V22.3201C8.78589 23.3088 9.59116 24.1102 10.5804 24.1102ZM9.98336 19.9332C9.98336 19.6037 10.2506 19.3365 10.5804 19.3365C10.9101 19.3365 11.1774 19.6037 11.1774 19.9332V22.3201C11.1774 22.6496 10.9101 22.9168 10.5804 22.9168C10.2506 22.9168 9.98336 22.6496 9.98336 22.3201V19.9332Z" fill="currentColor"/>
<path fill-rule="evenodd" clip-rule="evenodd" d="M10.5804 16.9463C11.5696 16.9463 12.3714 16.1449 12.3714 15.1562V12.7694C12.3714 11.7807 11.5696 10.9758 10.5804 10.9758C9.59116 10.9758 8.78589 11.7807 8.78589 12.7694V15.1562C8.78589 16.1449 9.59116 16.9463 10.5804 16.9463ZM9.98336 12.7694C9.98336 12.4398 10.2506 12.1727 10.5804 12.1727C10.9101 12.1727 11.1774 12.4398 11.1774 12.7694V15.1562C11.1774 15.4858 10.9101 15.7529 10.5804 15.7529C10.2506 15.7529 9.98336 15.4858 9.98336 15.1562V12.7694Z" fill="currentColor"/>
<path fill-rule="evenodd" clip-rule="evenodd" d="M31.6038 9.78246C32.593 9.78246 33.3948 8.98108 33.3948 7.99236V5.60555C33.3948 4.61683 32.593 3.81543 31.6038 3.81543C30.6146 3.81543 29.8093 4.61683 29.8093 5.60555V7.99236C29.8093 8.98108 30.6146 9.78246 31.6038 9.78246ZM31.0068 5.60555C31.0068 5.27597 31.274 5.00883 31.6038 5.00883C31.9335 5.00883 32.2008 5.27597 32.2008 5.60555V7.99236C32.2008 8.32193 31.9335 8.58905 31.6038 8.58905C31.274 8.58905 31.0068 8.32193 31.0068 7.99236V5.60555Z" fill="currentColor"/>
<path fill-rule="evenodd" clip-rule="evenodd" d="M31.6038 24.1102C32.593 24.1102 33.3948 23.3088 33.3948 22.3201V19.9332C33.3948 18.941 32.593 18.1396 31.6038 18.1396C30.6146 18.1396 29.8093 18.941 29.8093 19.9332V22.3201C29.8093 23.3088 30.6146 24.1102 31.6038 24.1102ZM31.0068 19.9332C31.0068 19.6037 31.274 19.3365 31.6038 19.3365C31.9335 19.3365 32.2008 19.6037 32.2008 19.9332V22.3201C32.2008 22.6496 31.9335 22.9168 31.6038 22.9168C31.274 22.9168 31.0068 22.6496 31.0068 22.3201V19.9332Z" fill="currentColor"/>
<path fill-rule="evenodd" clip-rule="evenodd" d="M30.4063 15.7529C30.0766 15.7529 29.8093 16.02 29.8093 16.3496C29.8093 16.6792 30.0766 16.9463 30.4063 16.9463H32.7978C33.1275 16.9463 33.3948 16.6792 33.3948 16.3496C33.3948 16.02 33.1275 15.7529 32.7978 15.7529H32.2008V11.576C32.2008 11.3331 32.055 11.1146 31.8294 11.0244C31.6073 10.9307 31.3504 10.9828 31.1803 11.1528L29.9863 12.3462C29.7607 12.5821 29.7642 12.9533 29.9933 13.1822C30.2224 13.4147 30.5972 13.4181 30.8298 13.1892L31.0068 13.0157V15.7529H30.4063Z" fill="currentColor"/>
<path fill-rule="evenodd" clip-rule="evenodd" d="M25.1512 8.58911C24.8215 8.58911 24.5542 8.85625 24.5542 9.18582C24.5542 9.5154 24.8215 9.78252 25.1512 9.78252H27.5392C27.8724 9.78252 28.1396 9.5154 28.1396 9.18582C28.1396 8.85625 27.8724 8.58911 27.5392 8.58911H26.9422V4.41219C26.9422 4.16935 26.7999 3.95078 26.5743 3.86058C26.3521 3.76691 26.0953 3.81895 25.9252 3.98894L24.7312 5.18235C24.5021 5.41825 24.5056 5.78947 24.7382 6.01844C24.9672 6.25087 25.3386 6.25433 25.5746 6.02536L25.7482 5.8519V8.58911H25.1512Z" fill="currentColor"/>
<path fill-rule="evenodd" clip-rule="evenodd" d="M25.1512 22.917C24.8215 22.917 24.5542 23.1841 24.5542 23.5137C24.5542 23.8433 24.8215 24.1104 25.1512 24.1104H27.5392C27.8724 24.1104 28.1396 23.8433 28.1396 23.5137C28.1396 23.1841 27.8724 22.917 27.5392 22.917H26.9422V18.7366C26.9422 18.4972 26.7999 18.2787 26.5743 18.1885C26.3521 18.0948 26.0953 18.1468 25.9252 18.3168L24.7312 19.5102C24.5021 19.7427 24.5056 20.1173 24.7382 20.3463C24.9672 20.5753 25.3386 20.5787 25.5746 20.3532L25.7482 20.1798V22.917H25.1512Z" fill="currentColor"/>
<path fill-rule="evenodd" clip-rule="evenodd" d="M25.1512 15.7529C24.8215 15.7529 24.5542 16.02 24.5542 16.3496C24.5542 16.6792 24.8215 16.9463 25.1512 16.9463H27.5392C27.8724 16.9463 28.1396 16.6792 28.1396 16.3496C28.1396 16.02 27.8724 15.7529 27.5392 15.7529H26.9422V11.576C26.9422 11.3331 26.7999 11.1146 26.5743 11.0244C26.3521 10.9307 26.0953 10.9828 25.9252 11.1528L24.7312 12.3462C24.5021 12.5821 24.5056 12.9533 24.7382 13.1822C24.9672 13.4147 25.3386 13.4181 25.5746 13.1892L25.7482 13.0157V15.7529H25.1512Z" fill="currentColor"/>
<path fill-rule="evenodd" clip-rule="evenodd" d="M15.8352 24.1104C16.8244 24.1104 17.6262 23.309 17.6262 22.3203V19.9335C17.6262 18.9413 16.8244 18.1399 15.8352 18.1399C14.846 18.1399 14.0442 18.9413 14.0442 19.9335V22.3203C14.0442 23.309 14.846 24.1104 15.8352 24.1104ZM15.2382 19.9335C15.2382 19.6039 15.5054 19.3368 15.8352 19.3368C16.1649 19.3368 16.4322 19.6039 16.4322 19.9335V22.3203C16.4322 22.6499 16.1649 22.917 15.8352 22.917C15.5054 22.917 15.2382 22.6499 15.2382 22.3203V19.9335Z" fill="currentColor"/>
<path fill-rule="evenodd" clip-rule="evenodd" d="M15.8352 16.9463C16.8244 16.9463 17.6262 16.1449 17.6262 15.1562V12.7694C17.6262 11.7807 16.8244 10.9758 15.8352 10.9758C14.846 10.9758 14.0442 11.7807 14.0442 12.7694V15.1562C14.0442 16.1449 14.846 16.9463 15.8352 16.9463ZM15.2382 12.7694C15.2382 12.4398 15.5054 12.1727 15.8352 12.1727C16.1649 12.1727 16.4322 12.4398 16.4322 12.7694V15.1562C16.4322 15.4858 16.1649 15.7529 15.8352 15.7529C15.5054 15.7529 15.2382 15.4858 15.2382 15.1562V12.7694Z" fill="currentColor"/>
<path fill-rule="evenodd" clip-rule="evenodd" d="M14.6412 8.58911C14.3114 8.58911 14.0442 8.85625 14.0442 9.18582C14.0442 9.5154 14.3114 9.78252 14.6412 9.78252H17.0292C17.3589 9.78252 17.6262 9.5154 17.6262 9.18582C17.6262 8.85625 17.3589 8.58911 17.0292 8.58911H16.4322V4.41219C16.4322 4.16935 16.2864 3.95078 16.0643 3.86058C15.8386 3.76691 15.5853 3.81895 15.4117 3.98894L14.2177 5.18235C13.9921 5.41825 13.9956 5.78947 14.2247 6.01844C14.4572 6.25087 14.8286 6.25433 15.0612 6.02536L15.2382 5.8519V8.58911H14.6412Z" fill="currentColor"/>
<path fill-rule="evenodd" clip-rule="evenodd" d="M21.0903 24.1104C22.0795 24.1104 22.8813 23.309 22.8813 22.3203V19.9335C22.8813 18.9413 22.0795 18.1399 21.0903 18.1399C20.1011 18.1399 19.2993 18.9413 19.2993 19.9335V22.3203C19.2993 23.309 20.1011 24.1104 21.0903 24.1104ZM20.4933 19.9335C20.4933 19.6039 20.7606 19.3368 21.0903 19.3368C21.4201 19.3368 21.6873 19.6039 21.6873 19.9335V22.3203C21.6873 22.6499 21.4201 22.917 21.0903 22.917C20.7606 22.917 20.4933 22.6499 20.4933 22.3203V19.9335Z" fill="currentColor"/>
<path fill-rule="evenodd" clip-rule="evenodd" d="M19.8963 8.58911C19.5666 8.58911 19.2993 8.85625 19.2993 9.18582C19.2993 9.5154 19.5666 9.78252 19.8963 9.78252H22.2843C22.6141 9.78252 22.8813 9.5154 22.8813 9.18582C22.8813 8.85625 22.6141 8.58911 22.2843 8.58911H21.6873V4.41219C21.6873 4.16935 21.5415 3.95078 21.3194 3.86058C21.0972 3.76691 20.8404 3.81895 20.6669 3.98894L19.4729 5.18235C19.2473 5.41825 19.2507 5.78947 19.4798 6.01844C19.7123 6.25087 20.0838 6.25433 20.3198 6.02536L20.4933 5.8519V8.58911H19.8963Z" fill="currentColor"/>
<path fill-rule="evenodd" clip-rule="evenodd" d="M19.8963 15.7529C19.5666 15.7529 19.2993 16.02 19.2993 16.3496C19.2993 16.6792 19.5666 16.9463 19.8963 16.9463H22.2843C22.6141 16.9463 22.8813 16.6792 22.8813 16.3496C22.8813 16.02 22.6141 15.7529 22.2843 15.7529H21.6873V11.5725C21.6873 11.3332 21.5415 11.1146 21.3194 11.0244C21.0972 10.9307 20.8404 10.9828 20.6669 11.1528L19.4729 12.3462C19.2473 12.5786 19.2507 12.9533 19.4798 13.1822C19.7123 13.4147 20.0838 13.4147 20.3198 13.1892L20.4933 13.0157V15.7529H19.8963Z" fill="currentColor"/>
</svg>
