<svg viewBox="0 0 39 39" fill="none" xmlns="http://www.w3.org/2000/svg">
<path d="M35.9652 12.3223C36.9717 12.3223 37.7909 11.507 37.7909 10.4975V3.20175C37.7909 2.19221 36.9717 1.37695 35.9652 1.37695H3.10935C2.10278 1.37695 1.28711 2.19221 1.28711 3.20175V10.4975C1.28711 11.507 2.10278 12.3223 3.10935 12.3223H4.93506V14.1471H3.10935C2.10278 14.1471 1.28711 14.9623 1.28711 15.9719V23.2676C1.28711 24.2771 2.10278 25.0924 3.10935 25.0924H4.93506V26.9172H3.10935C2.10278 26.9172 1.28711 27.7325 1.28711 28.742V36.0377C1.28711 37.0473 2.10278 37.8625 3.10935 37.8625H35.9652C36.9717 37.8625 37.7909 37.0473 37.7909 36.0377V28.742C37.7909 27.7325 36.9717 26.9172 35.9652 26.9172H34.1395V25.0924H35.9652C36.9717 25.0924 37.7909 24.2771 37.7909 23.2676V15.9719C37.7909 14.9623 36.9717 14.1471 35.9652 14.1471H34.1395V12.3223H35.9652ZM35.9652 28.1314C36.3018 28.1314 36.5726 28.4055 36.5726 28.742V36.0377C36.5726 36.3742 36.3018 36.6448 35.9652 36.6448H3.10935C2.77614 36.6448 2.50193 36.3742 2.50193 36.0377V28.742C2.50193 28.4055 2.77614 28.1314 3.10935 28.1314H35.9652ZM6.15335 26.9172V25.0924H7.36818V26.9172H6.15335ZM8.58647 26.9172V25.0924H30.488V26.9172H8.58647ZM31.7063 26.9172V25.0924H32.9212V26.9172H31.7063ZM35.9652 15.3648C36.3018 15.3648 36.5726 15.6354 36.5726 15.9719V23.2676C36.5726 23.6041 36.3018 23.8747 35.9652 23.8747H3.10935C2.77614 23.8747 2.50193 23.6041 2.50193 23.2676V15.9719C2.50193 15.6354 2.77614 15.3648 3.10935 15.3648H35.9652ZM6.15335 14.1471V12.3223H7.36818V14.1471H6.15335ZM8.58647 14.1471V12.3223H30.488V14.1471H8.58647ZM31.7063 14.1471V12.3223H32.9212V14.1471H31.7063ZM3.10935 11.1046C2.77614 11.1046 2.50193 10.834 2.50193 10.4975V3.20175C2.50193 2.86523 2.77614 2.59464 3.10935 2.59464H35.9652C36.3018 2.59464 36.5726 2.86523 36.5726 3.20175V10.4975C36.5726 10.834 36.3018 11.1046 35.9652 11.1046H3.10935Z" fill="currentColor" stroke="currentColor" stroke-width="0.899683" stroke-miterlimit="22.9256"/>
<path d="M20.7557 6.24066H8.47552C8.13884 5.2901 7.09756 4.794 6.14652 5.13051C5.19549 5.46702 4.69915 6.50779 5.03236 7.45835C5.36904 8.40891 6.41379 8.905 7.36135 8.56849C7.88199 8.38462 8.29156 7.97873 8.47552 7.45835H20.7557C21.0923 7.45835 21.3631 7.18428 21.3631 6.85124C21.3631 6.51473 21.0923 6.24066 20.7557 6.24066ZM6.76088 7.45835C6.4242 7.45835 6.15347 7.18428 6.15347 6.85124C6.15347 6.51473 6.4242 6.24066 6.76088 6.24066C7.09756 6.24066 7.36829 6.51473 7.36829 6.85124C7.36829 7.18428 7.09756 7.45835 6.76088 7.45835Z" fill="currentColor"/>
<path d="M29.2732 3.80884H28.0549V5.02654H29.2732V3.80884Z" fill="currentColor"/>
<path d="M31.7063 3.80884H30.488V5.02654H31.7063V3.80884Z" fill="currentColor"/>
<path d="M34.1394 3.80884H32.9211V5.02654H34.1394V3.80884Z" fill="currentColor"/>
<path d="M26.8401 3.80884H25.6218V5.02654H26.8401V3.80884Z" fill="currentColor"/>
<path d="M29.2732 6.24072H28.0549V7.45841H29.2732V6.24072Z" fill="currentColor"/>
<path d="M31.7063 6.24072H30.488V7.45841H31.7063V6.24072Z" fill="currentColor"/>
<path d="M34.1394 6.24072H32.9211V7.45841H34.1394V6.24072Z" fill="currentColor"/>
<path d="M26.8401 6.24072H25.6218V7.45841H26.8401V6.24072Z" fill="currentColor"/>
<path d="M29.2732 8.67261H28.0549V9.89027H29.2732V8.67261Z" fill="currentColor"/>
<path d="M31.7063 8.67261H30.488V9.89027H31.7063V8.67261Z" fill="currentColor"/>
<path d="M34.1394 8.67261H32.9211V9.89027H34.1394V8.67261Z" fill="currentColor"/>
<path d="M26.8401 8.67261H25.6218V9.89027H26.8401V8.67261Z" fill="currentColor"/>
<path d="M20.7557 19.0109H8.47552C8.13884 18.0604 7.09756 17.5643 6.14652 17.9008C5.19549 18.2373 4.69915 19.278 5.03236 20.2286C5.36904 21.1792 6.41379 21.6752 7.36135 21.3387C7.88199 21.1549 8.29156 20.749 8.47552 20.2286H20.7557C21.0923 20.2286 21.3631 19.9545 21.3631 19.618C21.3631 19.285 21.0923 19.0109 20.7557 19.0109ZM6.76088 20.2286C6.4242 20.2286 6.15347 19.9545 6.15347 19.618C6.15347 19.285 6.4242 19.0109 6.76088 19.0109C7.09756 19.0109 7.36829 19.285 7.36829 19.618C7.36829 19.9545 7.09756 20.2286 6.76088 20.2286Z" fill="currentColor"/>
<path d="M29.2732 16.5791H28.0549V17.7968H29.2732V16.5791Z" fill="currentColor"/>
<path d="M31.7063 16.5791H30.488V17.7968H31.7063V16.5791Z" fill="currentColor"/>
<path d="M34.1394 16.5791H32.9211V17.7968H34.1394V16.5791Z" fill="currentColor"/>
<path d="M26.8401 16.5791H25.6218V17.7968H26.8401V16.5791Z" fill="currentColor"/>
<path d="M29.2732 19.011H28.0549V20.2287H29.2732V19.011Z" fill="currentColor"/>
<path d="M31.7063 19.011H30.488V20.2287H31.7063V19.011Z" fill="currentColor"/>
<path d="M34.1394 19.011H32.9211V20.2287H34.1394V19.011Z" fill="currentColor"/>
<path d="M26.8401 19.011H25.6218V20.2287H26.8401V19.011Z" fill="currentColor"/>
<path d="M29.2732 21.4429H28.0549V22.6606H29.2732V21.4429Z" fill="currentColor"/>
<path d="M31.7063 21.4429H30.488V22.6606H31.7063V21.4429Z" fill="currentColor"/>
<path d="M34.1394 21.4429H32.9211V22.6606H34.1394V21.4429Z" fill="currentColor"/>
<path d="M26.8401 21.4429H25.6218V22.6606H26.8401V21.4429Z" fill="currentColor"/>
<path d="M20.7557 31.7809H8.47552C8.13884 30.8304 7.09756 30.3343 6.14652 30.6708C5.19549 31.0038 4.69915 32.0481 5.03236 32.9986C5.36904 33.9492 6.41379 34.4453 7.36135 34.1088C7.88199 33.9249 8.29156 33.5156 8.47552 32.9986H20.7557C21.0923 32.9986 21.3631 32.7246 21.3631 32.3881C21.3631 32.055 21.0923 31.7809 20.7557 31.7809ZM6.76088 32.9986C6.4242 32.9986 6.15347 32.7246 6.15347 32.3881C6.15347 32.055 6.4242 31.7809 6.76088 31.7809C7.09756 31.7809 7.36829 32.055 7.36829 32.3881C7.36829 32.7246 7.09756 32.9986 6.76088 32.9986Z" fill="currentColor"/>
<path d="M29.2732 29.3491H28.0549V30.5668H29.2732V29.3491Z" fill="currentColor"/>
<path d="M31.7063 29.3491H30.488V30.5668H31.7063V29.3491Z" fill="currentColor"/>
<path d="M34.1394 29.3491H32.9211V30.5668H34.1394V29.3491Z" fill="currentColor"/>
<path d="M26.8401 29.3491H25.6218V30.5668H26.8401V29.3491Z" fill="currentColor"/>
<path d="M29.2732 31.781H28.0549V32.9987H29.2732V31.781Z" fill="currentColor"/>
<path d="M31.7063 31.781H30.488V32.9987H31.7063V31.781Z" fill="currentColor"/>
<path d="M34.1394 31.781H32.9211V32.9987H34.1394V31.781Z" fill="currentColor"/>
<path d="M26.8401 31.781H25.6218V32.9987H26.8401V31.781Z" fill="currentColor"/>
<path d="M29.2732 34.2129H28.0549V35.4306H29.2732V34.2129Z" fill="currentColor"/>
<path d="M31.7063 34.2129H30.488V35.4306H31.7063V34.2129Z" fill="currentColor"/>
<path d="M34.1394 34.2129H32.9211V35.4306H34.1394V34.2129Z" fill="currentColor"/>
<path d="M26.8401 34.2129H25.6218V35.4306H26.8401V34.2129Z" fill="currentColor"/>
</svg>
