<svg viewBox="0 0 36 36" fill="none" xmlns="http://www.w3.org/2000/svg">
<path d="M36 0H0V36H36V0Z" fill="currentColor"/>
<path d="M20.7959 23.0456C20.7951 22.9114 20.7556 22.7715 20.7058 22.6459C20.6395 22.4808 20.4973 22.3987 20.3188 22.3813C20.1094 22.3608 19.942 22.4453 19.7903 22.5796C19.7295 22.6325 19.7018 22.7115 19.7018 22.7115L19.705 26.9748V27.0799C19.705 27.0799 19.7413 27.1288 19.7469 27.1352C19.8701 27.2687 20.0139 27.3745 20.1979 27.4124C20.5012 27.4748 20.7153 27.3484 20.7746 27.0672C20.7896 26.9969 20.7983 26.9242 20.7983 26.8524C20.7998 25.5829 20.8022 24.3143 20.7959 23.0456ZM20.7959 23.0456C20.7951 22.9114 20.7556 22.7715 20.7058 22.6459C20.6395 22.4808 20.4973 22.3987 20.3188 22.3813C20.1094 22.3608 19.942 22.4453 19.7903 22.5796C19.7295 22.6325 19.7018 22.7115 19.7018 22.7115L19.705 26.9748V27.0799C19.705 27.0799 19.7413 27.1288 19.7469 27.1352C19.8701 27.2687 20.0139 27.3745 20.1979 27.4124C20.5012 27.4748 20.7153 27.3484 20.7746 27.0672C20.7896 26.9969 20.7983 26.9242 20.7983 26.8524C20.7998 25.5829 20.8022 24.3143 20.7959 23.0456ZM25.5695 16.6163C20.5242 16.5081 15.4764 16.5081 10.4303 16.6163C8.6798 16.6534 7.28003 18.0848 7.28003 19.8361V27.7166C7.28003 29.4686 8.6798 30.9 10.4303 30.9371C15.4764 31.0454 20.5242 31.0454 25.5695 30.9371C27.3208 30.9 28.7206 29.4686 28.7206 27.7166V19.8361C28.7206 18.0849 27.3208 16.6534 25.5695 16.6163ZM11.9122 28.4347H10.4572V20.209H8.95075V18.833H13.4218V20.2059H11.9122V28.4347ZM17.1195 25.0205V28.4354H15.8311V27.6549C15.7845 27.7047 15.7585 27.7316 15.734 27.7592C15.4567 28.072 15.1423 28.3327 14.741 28.4709C14.5451 28.5381 14.3437 28.561 14.1375 28.5255C13.8563 28.4788 13.6675 28.3169 13.5537 28.061C13.4479 27.8248 13.421 27.572 13.4202 27.3176C13.4171 26.3776 13.4187 21.4026 13.4187 21.3544H14.7039C14.7063 21.3978 14.711 24.9691 14.7118 26.711C14.7118 26.8058 14.7126 26.9029 14.7315 26.9953C14.7789 27.2292 14.9582 27.3295 15.1834 27.2473C15.4425 27.1525 15.64 26.974 15.8058 26.7599C15.8303 26.7291 15.8303 26.6738 15.8303 26.6296V21.3465L17.1195 21.3433C17.1195 21.3434 17.1195 23.8372 17.1195 25.0205ZM22.0211 27.7529C21.8489 28.2711 21.4697 28.5349 20.9247 28.5294C20.4815 28.5255 20.1221 28.3493 19.8259 28.0278C19.7927 27.9922 19.701 27.8951 19.701 27.8951V28.4338H18.4103V18.8321H19.701C19.701 19.8543 19.701 21.9927 19.701 21.9927C19.701 21.9927 19.7737 21.8473 19.8401 21.7723C20.0399 21.5487 20.2832 21.3757 20.5834 21.2999C21.0787 21.1759 21.6498 21.3291 21.9216 21.9081C22.0819 22.2502 22.1269 22.6151 22.1269 22.9864C22.1293 24.3285 22.1293 25.6706 22.1277 27.0127C22.1269 27.2639 22.1009 27.512 22.0211 27.7529ZM26.7884 27.4828C26.5648 28.1377 26.1027 28.501 25.4249 28.6006C25.0047 28.6622 24.5884 28.6535 24.1942 28.475C23.6547 28.2317 23.349 27.7917 23.2179 27.2316C23.157 26.9709 23.127 26.6976 23.1238 26.4298C23.1136 25.3784 23.1183 24.3262 23.1207 23.2748C23.1215 22.725 23.2526 22.2179 23.6294 21.7968C24.0591 21.3158 24.6089 21.1364 25.2369 21.1767C25.4257 21.1886 25.6185 21.2194 25.7978 21.2786C26.4084 21.4793 26.7347 21.9366 26.8626 22.5433C26.9116 22.7771 26.9298 23.0197 26.9337 23.259C26.944 23.8199 26.9298 25.0561 26.9298 25.0561H24.4581V26.828C24.4581 27.1463 24.7156 27.4038 25.0339 27.4038C25.3515 27.4038 25.609 27.1463 25.609 26.828V25.9172H26.9369C26.9369 25.9171 26.9566 26.9923 26.7884 27.4828ZM25.609 22.9628C25.609 22.6452 25.3515 22.3869 25.0339 22.3869C24.7156 22.3869 24.4581 22.6452 24.4581 22.9628V23.9573H25.609V22.9628ZM20.7058 22.646C20.6395 22.4809 20.4973 22.3988 20.3188 22.3814C20.1094 22.3608 19.942 22.4454 19.7903 22.5797C19.7295 22.6326 19.7018 22.7116 19.7018 22.7116L19.705 26.9749V27.0799C19.705 27.0799 19.7413 27.1289 19.7469 27.1352C19.8701 27.2687 20.0139 27.3746 20.1979 27.4125C20.5012 27.4749 20.7153 27.3485 20.7746 27.0673C20.7896 26.997 20.7983 26.9243 20.7983 26.8524C20.7998 25.583 20.8022 24.3144 20.7959 23.0457C20.7951 22.9114 20.7556 22.7715 20.7058 22.646Z" fill="white"/>
<path d="M24.0052 7.50391L24.0048 14.6326H22.6839L22.6855 13.8668C22.5394 14.0106 22.4148 14.145 22.2778 14.2657C22.035 14.4796 21.7599 14.6391 21.4382 14.7021C20.9442 14.7987 20.5235 14.6425 20.366 14.1309C20.3135 13.9606 20.2819 13.7769 20.2805 13.599V7.50391H21.5915V12.9404C21.5915 13.0124 21.5973 13.0852 21.6099 13.1558C21.6497 13.3799 21.8153 13.4853 22.031 13.4105C22.294 13.3195 22.4946 13.1374 22.6649 12.9229C22.689 12.8922 22.6847 12.8351 22.6847 12.7901V7.50391H24.0052Z" fill="white"/>
<path d="M13.0796 8.74269C12.7929 7.53401 12.1921 4.98242 12.1921 4.98242H10.689C10.689 4.98242 11.8439 8.8126 12.3603 10.5208C12.3789 10.5825 12.3874 10.6496 12.3874 10.7143L12.3869 14.6311H13.773L13.7724 10.7143C13.7724 10.6496 13.7809 10.5825 13.7995 10.5208C14.316 8.8126 15.4709 4.98242 15.4709 4.98242H13.9677C13.9677 4.98242 13.3669 7.53401 13.0802 8.74269H13.0796Z" fill="white"/>
<path d="M17.2801 7.3252C16.2355 7.3252 15.3887 8.17201 15.3887 9.21663V12.9182C15.3887 13.9628 16.2355 14.8096 17.2801 14.8096C18.3247 14.8096 19.1715 13.9628 19.1715 12.9182V9.21663C19.1716 8.17201 18.3247 7.3252 17.2801 7.3252ZM17.826 12.9929C17.826 13.2939 17.5811 13.5387 17.2802 13.5387C16.9793 13.5387 16.7344 13.2939 16.7344 12.9929V9.14182C16.7344 8.84085 16.9793 8.59605 17.2802 8.59605C17.5811 8.59605 17.826 8.84093 17.826 9.14182V12.9929Z" fill="white"/>
</svg>
