<svg viewBox="0 0 35 35" fill="none" xmlns="http://www.w3.org/2000/svg">
<path d="M0.859666 3.726L3.10536 7.65311C3.18172 7.78494 3.30667 7.88208 3.45592 7.92024L5.54889 8.44409L12.7337 15.6219L13.5286 14.8309L6.23267 7.53864C6.15978 7.46579 6.06953 7.41375 5.97235 7.38947L3.95921 6.88643L2.04672 3.53865L3.685 1.9012L7.03445 3.81273L7.53774 5.82486C7.56551 5.92546 7.6141 6.01566 7.68699 6.08505L14.9829 13.3773L15.7777 12.5863L8.59291 5.40508L8.0688 3.31316C8.03061 3.16399 7.9369 3.03909 7.80154 2.96277L3.87591 0.71819C3.65377 0.593299 3.37957 0.631464 3.20255 0.808393L0.956852 3.05297C0.776363 3.2299 0.734712 3.50744 0.859666 3.726Z" fill="currentColor"/>
<path d="M2.87985 7.78158L0.634163 3.85445L1.08538 3.59773L3.33107 7.52484L2.87985 7.78158ZM3.5185 7.66709L3.39354 8.17013L3.37272 8.16318L3.35189 8.15971L3.33454 8.15276L3.31372 8.14584L3.29636 8.1389L3.27206 8.13195L3.25471 8.12155L3.23736 8.11461L3.21652 8.10421L3.20265 8.09727L3.18182 8.08685L3.16446 8.07298L3.14711 8.06604L3.12975 8.05217L3.1124 8.0383L3.09851 8.02788L3.08116 8.01748L3.06728 8.00359L3.04992 7.98972L3.03256 7.97585L3.01869 7.96196L3.0048 7.94809L2.99091 7.93075L2.97704 7.91686L2.96315 7.89952L2.94927 7.88218L2.93885 7.86831L2.92497 7.85442L2.91455 7.83708L2.90068 7.81626L2.89027 7.79892L2.87985 7.78158L3.33107 7.52484L3.33454 7.53179L3.33801 7.53873L3.34148 7.5422L3.34496 7.54913L3.35189 7.55607L3.35883 7.56302L3.36231 7.56994L3.36578 7.57342L3.37272 7.58036L3.37619 7.58383L3.38313 7.59076L3.38661 7.5977L3.39354 7.60117L3.39702 7.60465L3.40396 7.61157L3.4109 7.61504L3.41784 7.62199L3.42132 7.62546L3.42825 7.62893L3.43519 7.63239L3.44214 7.63586L3.44561 7.63933L3.45602 7.6428L3.46297 7.64628L3.4699 7.64975L3.47684 7.6532L3.48032 7.65667L3.49073 7.66015H3.49768L3.50462 7.66362L3.51155 7.66709H3.5185ZM3.39354 8.17013L3.31718 8.15276L3.39354 8.17013ZM5.48651 8.69396L3.39354 8.17013L3.5185 7.66709L5.61147 8.19094L5.73294 8.26031L5.48651 8.69396ZM5.61147 8.19094L5.68436 8.20828L5.73294 8.26031L5.61147 8.19094ZM12.5498 15.8058L5.3685 8.62459L5.73294 8.26031L12.9178 15.4381V15.8058H12.5498ZM12.9178 15.8058L12.7338 15.9897L12.5498 15.8058H12.9178ZM13.7126 15.0114L12.9178 15.8058L12.5498 15.4381L13.3447 14.6471H13.7126V15.0114ZM13.7126 14.6471L13.8931 14.831L13.7126 15.0114V14.6471ZM6.41672 7.35485L13.7126 14.6471L13.3447 15.0114L6.0488 7.71912L6.41672 7.35485ZM5.90996 7.63933L6.03492 7.13977H6.0488L6.06269 7.14671L6.07657 7.15018L6.08699 7.15366L6.10087 7.15711L6.11475 7.16405L6.12516 7.16753L6.13905 7.171L6.15293 7.17792L6.16681 7.18487L6.1807 7.19181L6.19111 7.19528L6.20152 7.19874L6.21193 7.20568L6.22582 7.21263L6.23971 7.21955L6.25358 7.22997L6.26401 7.23344L6.27788 7.24384L6.28483 7.24731L6.29524 7.25426L6.31259 7.26812L6.31953 7.2716L6.32994 7.28201L6.34383 7.29241L6.35078 7.29588L6.36119 7.30628L6.37507 7.3167L6.38548 7.32712L6.39937 7.33751L6.4063 7.34446L6.41672 7.35485L6.0488 7.71912L6.04534 7.71566L6.03839 7.70872L6.03145 7.70525L6.02797 7.70177L6.02104 7.69485H6.01756L6.0141 7.69138L6.00715 7.68443H6.00369L5.99326 7.67749L5.98633 7.67404L5.98285 7.67056H5.97939L5.97591 7.66709L5.97244 7.66362H5.9655L5.95856 7.65667H5.95509L5.95161 7.6532H5.94815H5.94468L5.93426 7.64975V7.64628H5.93079L5.92038 7.6428H5.91691H5.91344L5.90649 7.63933H5.90996ZM6.03492 7.13977L6.0974 7.15366L6.03492 7.13977ZM4.02178 6.63328L6.03492 7.13977L5.90996 7.63933L3.89683 7.13629L3.7337 7.01141L4.02178 6.63328ZM3.89683 7.13629L3.78923 7.10855L3.7337 7.01141L3.89683 7.13629ZM2.27244 3.41038L4.18491 6.75816L3.7337 7.01141L1.82121 3.6671L1.86286 3.35836L2.27244 3.41038ZM1.82121 3.6671L1.72403 3.49711L1.86286 3.35836L1.82121 3.6671ZM3.86906 2.08515L2.23078 3.72262L1.86286 3.35836L3.50114 1.71741L3.81352 1.67578L3.86906 2.08515ZM3.50114 1.71741L3.64345 1.57866L3.81352 1.67578L3.50114 1.71741ZM6.90612 4.03831L3.55668 2.12678L3.81352 1.67578L7.16297 3.58731L7.28445 3.75036L6.90612 4.03831ZM7.16297 3.58731L7.26016 3.64281L7.28445 3.75036L7.16297 3.58731ZM7.28792 5.88739L6.78464 3.87874L7.28445 3.75036L7.79121 5.76251L7.28792 5.88739ZM7.79121 5.76251L7.77732 5.71393L7.79121 5.76251ZM7.87104 5.90473L7.50312 6.26899L7.49271 6.2586L7.48924 6.25165L7.47188 6.23778L7.46494 6.22737L7.45799 6.22044L7.45106 6.21002L7.44064 6.19963L7.42676 6.18226L7.41982 6.17187L7.41635 6.16492L7.40593 6.15105L7.40247 6.14411L7.39206 6.13024L7.38163 6.11635L7.3747 6.10248L7.36776 6.09206L7.36428 6.08167L7.35735 6.07125L7.3504 6.05738L7.34346 6.04351L7.33652 6.02962L7.33305 6.01575L7.32957 6.00881L7.32263 5.99146L7.3157 5.97759L7.31222 5.96718L7.30875 5.95331L7.30181 5.93944V5.93249L7.29486 5.9186L7.2914 5.90126L7.28792 5.88739L7.79121 5.76251V5.76943L7.79467 5.7729L7.79815 5.78332V5.78679V5.79024L7.80162 5.80066L7.80509 5.80413L7.80856 5.81453V5.818L7.81204 5.82148L7.8155 5.82495V5.82842L7.81897 5.83187L7.82245 5.84229L7.82592 5.84576V5.84924H7.82939V5.85271L7.83633 5.85963V5.8631L7.84327 5.87005L7.84675 5.87697L7.84327 5.87352L7.84675 5.87697L7.85021 5.88392L7.85716 5.89086L7.86062 5.89434L7.86757 5.89779L7.87104 5.90473ZM14.799 13.5612L7.50312 6.26899L7.87104 5.90473L15.1669 13.197V13.5612H14.799ZM15.1669 13.5612L14.983 13.7451L14.799 13.5612H15.1669ZM15.9583 12.7703L15.1669 13.5612L14.799 13.197L15.5938 12.4025H15.9583V12.7703ZM15.9583 12.4025L16.1423 12.5864L15.9583 12.7703V12.4025ZM8.77695 5.22131L15.9583 12.4025L15.5938 12.7703L8.40904 5.58905L8.34309 5.46761L8.77695 5.22131ZM8.40904 5.58905L8.36044 5.537L8.34309 5.46761L8.40904 5.58905ZM8.32226 3.25081L8.8429 5.34273L8.34309 5.46761L7.81897 3.3757L8.32226 3.25081ZM8.32226 3.25081L8.29796 3.16753L8.32226 3.25081ZM7.6732 3.18835L7.93352 2.73736H7.93005L7.9474 2.74777L7.96476 2.75817L7.98558 2.77206L8.00293 2.78246L8.02029 2.79633L8.03417 2.80675L8.05153 2.82061L8.06541 2.83103L8.08277 2.84837L8.09665 2.86224L8.11053 2.87613L8.12442 2.89L8.1383 2.90734L8.15218 2.92123L8.16607 2.93858L8.17995 2.95592L8.19037 2.96979L8.20078 2.98368L8.21466 3.00449L8.22508 3.02183L8.23549 3.03918L8.2459 3.05999L8.25284 3.07388L8.26325 3.09469L8.27366 3.11551L8.28061 3.12938L8.29103 3.15366L8.29449 3.17101L8.3049 3.19182L8.30838 3.20916L8.31531 3.22998L8.32226 3.25081L7.81897 3.3757L7.8155 3.36875L7.81204 3.36181V3.35488L7.80856 3.34794L7.80509 3.33754V3.33407L7.79815 3.32365V3.32018L7.79467 3.31326L7.78774 3.30284V3.29936L7.7808 3.29244L7.77732 3.2855V3.28202L7.77039 3.27163L7.76344 3.26468L7.75997 3.26121L7.7565 3.25426L7.74956 3.24734L7.74609 3.24387L7.74261 3.23692L7.73567 3.23345L7.7322 3.22653L7.72526 3.22305L7.71831 3.21958L7.71138 3.21264L7.70444 3.20571L7.69749 3.20224L7.69403 3.19877L7.69055 3.19529L7.68361 3.19182L7.6732 3.18835ZM4.00443 0.492798L7.93352 2.73736L7.6732 3.18835L3.74758 0.943789L4.00096 0.492798H4.00443ZM4.00096 0.492798H4.00443L4.02178 0.503195L4.00096 0.492798ZM3.38313 0.992363L3.01869 0.624629L3.04298 0.600342L3.06728 0.579528L3.09505 0.558714L3.12281 0.537899L3.15058 0.517085L3.17835 0.499722L3.20958 0.48238L3.23736 0.468511L3.26859 0.454621L3.29636 0.444224L3.33107 0.430355L3.36231 0.419937L3.39007 0.412992L3.42478 0.402596L3.45602 0.399123L3.48727 0.392178L3.52197 0.388726H3.5532L3.58791 0.385254H3.61915L3.65039 0.388726L3.6851 0.392178L3.71634 0.39565L3.75105 0.399123L3.78229 0.406068L3.81352 0.416465L3.84823 0.42341L3.87947 0.437279L3.91071 0.447697L3.94196 0.461566L3.96972 0.475456L4.00096 0.492798L3.74758 0.943789L3.73716 0.936844L3.72329 0.933371L3.7094 0.926447L3.69899 0.922975L3.68857 0.919502L3.67816 0.91603L3.66427 0.912557L3.65386 0.909106L3.64345 0.905633H3.62956H3.61915H3.60528L3.59139 0.902161L3.58098 0.905633H3.56709H3.55668L3.54626 0.909106L3.53238 0.912557H3.52197L3.50809 0.91603L3.49768 0.919502L3.49073 0.922975L3.47684 0.92992L3.46297 0.936844L3.45255 0.940317L3.44214 0.947262L3.43173 0.954186L3.42132 0.957658L3.41437 0.968076L3.40049 0.975L3.39354 0.981945L3.38313 0.992363ZM0.772998 2.86919L3.01869 0.624629L3.38313 0.992363L1.14092 3.23692H1.13744L0.772998 2.86919ZM1.14092 3.23692H1.13744L1.16521 3.21264L1.14092 3.23692ZM1.08538 3.59773L0.634163 3.85445L0.616802 3.82322L0.602916 3.79201L0.58904 3.76077L0.578627 3.72954L0.564741 3.69486L0.557803 3.66363L0.550854 3.63242L0.543916 3.60118L0.536978 3.5665L0.533504 3.53527L0.530029 3.50058V3.46935V3.43467V3.39999L0.533504 3.36875L0.536978 3.33407L0.543916 3.30284L0.550854 3.27163L0.557803 3.24039L0.564741 3.20916L0.575153 3.17795L0.58904 3.14325L0.602916 3.11551L0.616802 3.08775L0.630689 3.05652L0.64804 3.02878L0.6654 3.00102L0.686225 2.96979L0.70705 2.94205L0.727875 2.91776L0.748699 2.89348L0.772998 2.86919L1.13744 3.23692L1.1305 3.24387L1.12009 3.25426L1.11314 3.26468L1.1062 3.27508L1.09927 3.2855L1.09232 3.29589L1.08538 3.30631L1.07844 3.31671L1.07497 3.32712L1.06803 3.34099L1.06455 3.35141L1.06108 3.36181L1.05762 3.37223L1.05414 3.38609V3.39651L1.05067 3.41038V3.4208L1.04719 3.43467V3.44854V3.45896V3.46935L1.05067 3.48324V3.49711L1.05414 3.50753V3.51793L1.05762 3.53182L1.06108 3.54221L1.06455 3.55263L1.06803 3.5665L1.07497 3.5769L1.08191 3.58731L1.08538 3.60118V3.59773ZM0.634163 3.85445L0.651514 3.88566L0.634163 3.85445ZM0.859771 3.72609L1.08538 3.59773L0.859771 3.72609ZM0.634163 3.85445L0.651514 3.88566L0.634163 3.85445Z" fill="currentColor"/>
<path d="M24.1949 11.6948L11.8453 24.0382L11.054 23.2437L23.4 10.9038L24.1949 11.6948Z" fill="currentColor"/>
<path d="M11.6648 23.8544L24.0109 11.511L24.3788 11.8787L12.0293 24.2186H11.6648V23.8544ZM12.0293 24.2186L11.8453 24.4025L11.6648 24.2186H12.0293ZM11.2379 23.0599L12.0293 23.8544L11.6648 24.2186L10.87 23.4277V23.0599H11.2379ZM10.87 23.4277L10.686 23.2438L10.87 23.0599V23.4277ZM23.584 11.0843L11.2379 23.4277L10.87 23.0599L23.2161 10.72H23.584V11.0843ZM23.2161 10.72L23.4 10.5361L23.584 10.72H23.2161ZM24.0109 11.8787L23.2161 11.0843L23.584 10.72L24.3788 11.511V11.8787H24.0109ZM24.3788 11.511L24.5593 11.6948L24.3788 11.8787V11.511Z" fill="currentColor"/>
<path d="M9.68647 24.472C9.58582 24.3055 9.40185 24.2014 9.20401 24.2014H5.83721C5.63937 24.2014 5.45888 24.3055 5.35475 24.472L3.67136 27.2786C3.56723 27.4555 3.56723 27.6775 3.67136 27.8545L5.35475 30.661C5.45888 30.831 5.63937 30.9316 5.83721 30.9316H9.20401C9.40185 30.9316 9.58582 30.831 9.68647 30.661L11.3699 27.8545C11.4775 27.6775 11.4775 27.4555 11.3699 27.2786L9.68647 24.472ZM8.88816 29.8111H6.15653L4.80635 27.5665L6.15653 25.322H8.88816L10.2349 27.5665L8.88816 29.8111Z" fill="currentColor"/>
<path d="M9.20406 24.4615V23.9412L9.23184 23.9446H9.2596L9.28737 23.9481H9.3082L9.33596 23.9516L9.36374 23.9585L9.3915 23.9654L9.4158 23.9689L9.4401 23.9759L9.46439 23.9863L9.48868 23.9932L9.51298 24.0036L9.54075 24.014L9.56158 24.0244L9.58587 24.0383L9.61017 24.0487L9.63099 24.0626L9.65182 24.0765L9.67612 24.0903L9.69694 24.1077L9.71777 24.1216L9.73513 24.1389L9.75595 24.1563L9.77678 24.1736L9.7976 24.1944L9.81148 24.2118L9.82884 24.2326L9.84619 24.2534L9.86355 24.2742L9.87743 24.295L9.89131 24.3158L9.90868 24.3401L9.46439 24.6073L9.45745 24.6003L9.45397 24.5899L9.44703 24.583L9.4401 24.576L9.43662 24.5691L9.42968 24.5587L9.41927 24.5517L9.41232 24.5448L9.40886 24.5379L9.40191 24.5344L9.39497 24.5275L9.38456 24.5205L9.37761 24.5136L9.37067 24.5101L9.36374 24.5066L9.35332 24.4997L9.34291 24.4962L9.33596 24.4893L9.32902 24.4858L9.31861 24.4824L9.31167 24.4789L9.30126 24.4754L9.29084 24.472H9.28043L9.27349 24.4685L9.26308 24.465H9.25614H9.24573L9.23184 24.4615H9.2249H9.21449H9.20406ZM5.83726 23.9412H9.20406V24.4615H5.83726V23.9412ZM5.57694 24.6073L5.13266 24.3401H5.13613L5.15001 24.3158L5.1639 24.295L5.17778 24.2742L5.19513 24.2534L5.21249 24.2326L5.22985 24.2118L5.2472 24.1944L5.26456 24.1736L5.28538 24.1563L5.30621 24.1354L5.32703 24.1216L5.34438 24.1077L5.36521 24.0903L5.38951 24.0765L5.41033 24.0626L5.43463 24.0487L5.45546 24.0383L5.47975 24.0244L5.50058 24.014L5.52834 24.0036L5.55264 23.9932L5.57694 23.9863L5.60124 23.9759L5.62553 23.9689L5.6533 23.962L5.6776 23.9585L5.70536 23.9516L5.73313 23.9481H5.75743L5.78172 23.9446H5.80949L5.83726 23.9412V24.4615H5.82685H5.81644H5.80949L5.79561 24.465H5.78866H5.77825L5.77131 24.4685L5.7609 24.472H5.75049L5.74007 24.4754L5.72966 24.4789L5.72271 24.4824L5.71578 24.4858L5.70536 24.4893L5.69843 24.4962L5.68801 24.4997L5.68106 24.5032L5.67065 24.5101L5.66371 24.5136L5.65678 24.5205L5.64635 24.5275L5.63941 24.5344L5.63248 24.5379L5.629 24.5448L5.62206 24.5517L5.61165 24.5587L5.60818 24.5691L5.60124 24.576L5.59429 24.583L5.59083 24.5899L5.58388 24.6003L5.57694 24.6073ZM5.13266 24.3401H5.13613L5.08406 24.4269L5.13266 24.3401ZM3.44925 27.1432L5.13266 24.3401L5.57694 24.6073L3.89353 27.4103L3.44925 27.1432ZM3.89353 27.7226L3.44925 27.9897L3.43537 27.9654L3.42149 27.9411L3.41108 27.9169L3.39719 27.8891L3.38678 27.8613L3.37983 27.8371L3.36942 27.8128L3.36248 27.785L3.35554 27.7573L3.35207 27.733L3.34513 27.7052L3.34165 27.6775L3.33818 27.6497L3.33472 27.622V27.5942V27.5665V27.5387V27.511L3.33818 27.4867L3.34165 27.4589L3.34513 27.4277L3.35207 27.4L3.35554 27.3791L3.36248 27.3514L3.36942 27.3201L3.37983 27.2959L3.38678 27.2716L3.39719 27.2473L3.41108 27.2195L3.42149 27.1953L3.43537 27.171L3.44925 27.1432L3.89353 27.4103L3.89006 27.4208L3.88312 27.4312L3.87965 27.4416L3.87618 27.4451L3.87271 27.4555L3.86923 27.4693L3.86577 27.4797L3.8623 27.4867L3.85882 27.4971V27.5075L3.85536 27.5179V27.5248L3.85188 27.5353V27.5457V27.5561V27.5665V27.5769V27.5873V27.5977L3.85536 27.6081V27.615L3.85882 27.6254V27.6393L3.8623 27.6497L3.86577 27.6567L3.86923 27.6636L3.87271 27.6775L3.87618 27.6879L3.87965 27.6948L3.88312 27.7052L3.89006 27.7122L3.89353 27.7226ZM3.89353 27.7226L3.79287 27.5526L3.89353 27.7226ZM5.13266 30.7928L3.44925 27.9897L3.89353 27.7226L5.57694 30.5291L5.13613 30.7928H5.13266ZM5.13613 30.7928H5.13266L5.08406 30.713L5.13613 30.7928ZM5.83726 30.6749V31.1918H5.80949H5.78172L5.75743 31.1883L5.73313 31.1848L5.70536 31.1814L5.6776 31.1779L5.6533 31.171L5.62553 31.164L5.60124 31.1571L5.57694 31.1501L5.55264 31.1397L5.52834 31.1328L5.50058 31.1189L5.47975 31.1085L5.45893 31.0981L5.43463 31.0842L5.41033 31.0703L5.38951 31.0599L5.36521 31.0426L5.34438 31.0287L5.32703 31.0148L5.30621 30.9975L5.28538 30.9802L5.26456 30.9593L5.2472 30.9385L5.22985 30.9212L5.21249 30.9038L5.19513 30.883L5.17778 30.8587L5.1639 30.8379L5.15001 30.8171L5.13613 30.7928L5.57694 30.5257L5.58388 30.5361L5.59083 30.543L5.59429 30.5534L5.60124 30.5604L5.60818 30.5673L5.61165 30.5742L5.62206 30.5812L5.629 30.5916L5.63248 30.5951L5.63941 30.5985L5.64635 30.6055L5.65678 30.6159L5.66371 30.6193L5.67065 30.6228L5.68106 30.6298L5.68801 30.6332L5.69495 30.6367L5.70536 30.6436L5.71578 30.6471L5.72271 30.6506L5.72966 30.6541L5.74007 30.6575L5.75049 30.661L5.7609 30.6644H5.77131L5.77825 30.6679L5.78866 30.6714H5.79561H5.80949H5.81644L5.82685 30.6749H5.83726ZM9.20406 31.1918H5.83726V30.6749H9.20406V31.1918ZM9.46439 30.5291L9.90868 30.7928L9.89131 30.8171L9.87743 30.8379L9.86355 30.8587L9.84619 30.883L9.82884 30.9038L9.81148 30.9212L9.7976 30.9385L9.77678 30.9593L9.75595 30.9802L9.73513 30.9975L9.71777 31.0114L9.69694 31.0287L9.67612 31.0426L9.65182 31.0599L9.63099 31.0703L9.61017 31.0842L9.58587 31.0981L9.56158 31.1085L9.54075 31.1189L9.51298 31.1328L9.48868 31.1397L9.46439 31.1501L9.4401 31.1571L9.4158 31.164L9.3915 31.171L9.36374 31.1779L9.33596 31.1814L9.3082 31.1848L9.28737 31.1883L9.2596 31.1918H9.23184H9.20406V30.6749H9.21449L9.2249 30.6714H9.23184H9.24573H9.25614L9.26308 30.6679H9.27349L9.28043 30.6644L9.29084 30.661L9.30126 30.6575L9.31167 30.6541L9.31861 30.6506L9.32902 30.6471L9.33596 30.6436L9.34637 30.6402L9.35332 30.6332L9.36026 30.6298L9.37067 30.6228L9.37761 30.6193L9.38456 30.6159L9.39497 30.6055L9.40191 30.602L9.40886 30.5951L9.41232 30.5916L9.41927 30.5812L9.42968 30.5742L9.43662 30.5673L9.4401 30.5604L9.44703 30.5534L9.45397 30.543L9.45745 30.5361L9.46439 30.5291ZM11.5921 27.9897L9.90868 30.7928L9.46439 30.5291L11.1478 27.7226L11.5921 27.9897ZM11.1478 27.7226L11.2485 27.5526L11.1478 27.7226ZM11.1478 27.4103L11.5921 27.1432L11.606 27.171L11.6198 27.1953L11.6303 27.2195L11.6441 27.2473L11.6546 27.2716L11.6615 27.2959L11.6719 27.3201L11.6788 27.3514L11.6858 27.3791L11.6927 27.4L11.6962 27.4277L11.7031 27.4589V27.4867L11.7066 27.511L11.7101 27.5387V27.5665V27.5942L11.7066 27.622L11.7031 27.6497V27.6775L11.6962 27.7052L11.6927 27.733L11.6858 27.7573L11.6788 27.785L11.6719 27.8128L11.6615 27.8371L11.6546 27.8613L11.6441 27.8891L11.6303 27.9169L11.6198 27.9411L11.606 27.9654L11.5921 27.9897L11.1478 27.7226L11.1513 27.7122L11.1582 27.7052L11.1617 27.6948L11.1652 27.6879L11.1686 27.6775L11.1756 27.6636L11.179 27.6567V27.6497L11.1825 27.6393L11.186 27.6254V27.615L11.1894 27.6081V27.5977V27.5873V27.5769V27.5665V27.5561V27.5457V27.5353V27.5248L11.186 27.5179V27.5075L11.1825 27.4971L11.179 27.4867V27.4797L11.1756 27.4693L11.1686 27.4555L11.1652 27.4451L11.1617 27.4416L11.1582 27.4312L11.1513 27.4208L11.1478 27.4103ZM9.90868 24.3401L11.5921 27.1432L11.1478 27.4103L9.46439 24.6073L9.90868 24.3401ZM6.15658 29.5509H8.88822V30.0712H6.15658L5.93445 29.9429L6.15658 29.5509ZM6.15658 30.0712H6.00733L5.93445 29.9429L6.15658 30.0712ZM5.032 27.4346L6.37873 29.6792L5.93445 29.9429L4.58425 27.7018V27.4346H5.032ZM4.58425 27.7018L4.50442 27.5665L4.58425 27.4346V27.7018ZM6.37873 25.4572L5.032 27.7018L4.58425 27.4346L5.93445 25.1901L6.15658 25.0652L6.37873 25.4572ZM5.93445 25.1901L6.00733 25.0652H6.15658L5.93445 25.1901ZM8.88822 25.5821H6.15658V25.0652H8.88822L9.11035 25.1901L8.88822 25.5821ZM8.88822 25.0652H9.03399L9.11035 25.1901L8.88822 25.0652ZM10.0128 27.7018L8.66607 25.4572L9.11035 25.1901L10.4571 27.4346V27.7018H10.0128ZM10.4571 27.4346L10.5369 27.5665L10.4571 27.7018V27.4346ZM8.66607 29.6792L10.0128 27.4346L10.4571 27.7018L9.11035 29.9429L8.88822 30.0712L8.66607 29.6792ZM9.11035 29.9429L9.03399 30.0712H8.88822L9.11035 29.9429Z" fill="currentColor"/>
<path d="M27.7247 14.106C31.4317 14.1164 34.4479 11.1225 34.4583 7.4174C34.4618 6.85539 34.3924 6.29338 34.2536 5.74524C34.1807 5.44689 33.8752 5.26303 33.5733 5.33588C33.4761 5.36363 33.3858 5.4122 33.3129 5.48505L29.8177 8.97509L27.0479 8.05227L26.1212 5.28038L29.6164 1.79036C29.8351 1.56833 29.8351 1.21448 29.6164 0.995923C29.5435 0.92307 29.4533 0.871013 29.3526 0.846729C25.7567 -0.0622025 22.1053 2.11299 21.1959 5.70361C21.0571 6.25175 20.9877 6.81029 20.9911 7.3723C20.9911 7.81289 21.0363 8.25349 21.1265 8.68714L8.83595 20.9716C8.40208 20.8814 7.96128 20.8363 7.52047 20.8363C3.79964 20.8363 0.786865 23.851 0.786865 27.5665C0.786865 31.2855 3.79964 34.2968 7.52047 34.2968C11.2413 34.2968 14.2541 31.2855 14.2541 27.5665C14.2541 27.126 14.2089 26.6854 14.1187 26.2517L17.0621 23.3133L18.3498 24.5969C18.5684 24.8155 18.9225 24.8155 19.1411 24.5969L19.4223 24.3159C19.6687 24.0731 20.0679 24.0731 20.3143 24.3159C20.5573 24.5622 20.5607 24.9612 20.3143 25.2075L20.0332 25.4885C19.8145 25.7071 19.8145 26.0609 20.0332 26.2795L26.7286 32.9716C28.4883 34.7478 31.3553 34.7617 33.1324 33.0028C34.9096 31.2404 34.9235 28.3749 33.1637 26.5986C33.1533 26.5882 33.1429 26.5778 33.1324 26.5709L26.437 19.8788C26.2184 19.6602 25.8643 19.6602 25.6457 19.8788L25.3645 20.1598C25.1181 20.4026 24.7189 20.4026 24.4725 20.1598C24.2295 19.9135 24.226 19.5145 24.4725 19.2717C24.4725 19.2682 24.4725 19.2682 24.4725 19.2682L24.7536 18.9872C24.9723 18.7687 24.9723 18.4148 24.7536 18.1962L23.4694 16.9092L26.4093 13.9673C26.8431 14.0575 27.2839 14.1026 27.7247 14.106ZM29.9288 33.1762C29.5227 33.1762 29.1201 33.1034 28.7383 32.9577L33.1186 28.5795C33.7815 30.335 32.893 32.2985 31.1332 32.9577C30.7479 33.1034 30.3418 33.1762 29.9288 33.1762ZM23.5735 18.5987C22.9522 19.3376 23.0494 20.4443 23.7887 21.0653C24.4412 21.6099 25.3923 21.6099 26.0413 21.0618L32.3411 27.3619C32.407 27.4313 32.473 27.5041 32.5354 27.577L27.7352 32.3749C27.6623 32.3124 27.5894 32.2465 27.52 32.1806L21.2168 25.877C21.838 25.1381 21.7409 24.0349 21.0016 23.4139C20.349 22.8658 19.398 22.8658 18.7489 23.4139L17.8499 22.5154L22.6745 17.7036L23.5735 18.5987ZM25.84 12.9543L13.1052 25.6793C12.9664 25.8181 12.9108 26.0193 12.9594 26.2101C13.73 29.2352 11.9008 32.3089 8.87761 33.0756C5.85443 33.8458 2.77918 32.021 2.00864 28.9993C1.23809 25.9742 3.06728 22.9005 6.09045 22.1303C7.00331 21.9013 7.96128 21.9013 8.87761 22.1303C9.06851 22.1789 9.26982 22.1234 9.41212 21.9846L22.14 9.25955C22.2789 9.12078 22.3344 8.91958 22.2858 8.72877C21.5222 5.74179 23.3236 2.69929 26.3121 1.93606C26.8778 1.79036 27.461 1.73486 28.0441 1.77302L25.0834 4.73224C24.9341 4.88142 24.8821 5.10345 24.948 5.30467L26.0691 8.67325C26.1246 8.83977 26.2565 8.97161 26.4266 9.02712L29.7934 10.1477C29.9947 10.217 30.2169 10.165 30.3661 10.0124L33.3268 7.05314C33.3338 7.16068 33.3372 7.26822 33.3372 7.3723C33.3546 10.4564 30.8659 12.9647 27.7838 12.982C27.3048 12.9855 26.8292 12.9265 26.3676 12.8086C26.1767 12.76 25.9754 12.8155 25.8366 12.9543H25.84Z" fill="currentColor"/>
<path d="M34.2016 7.41738L34.7188 7.42085L34.7084 7.77819L34.6806 8.13203L34.6355 8.47895L34.573 8.82242L34.4932 9.15892L34.3994 9.4885L34.2884 9.81461L34.1634 10.1303L34.0211 10.4391L33.8649 10.7374L33.6983 11.0288L33.5144 11.3098L33.32 11.5839L33.1117 11.8441L32.8931 12.0974L32.6605 12.3402L32.4175 12.5692L32.1642 12.7877L31.9004 12.9924L31.6262 13.1867L31.3416 13.3671L31.05 13.5336L30.748 13.6862L30.4391 13.825L30.1233 13.9499L29.797 14.0574L29.4672 14.1511L29.1306 14.2274L28.7869 14.2864L28.4364 14.328L28.0823 14.3558L27.7248 14.3627V13.8458L28.058 13.8389L28.3878 13.8146L28.7106 13.773L29.0264 13.7175L29.3388 13.6481L29.6443 13.5613L29.9462 13.4607L30.2378 13.3463L30.5259 13.2179L30.8036 13.0757L31.0743 12.923L31.3381 12.7565L31.5915 12.5761L31.8344 12.3853L32.0704 12.1841L32.2961 11.9724L32.5113 11.747L32.7126 11.5145L32.9069 11.2717L33.0874 11.0184L33.254 10.7582L33.4102 10.4876L33.556 10.2101L33.6844 9.92563L33.8024 9.6342L33.9031 9.33586L33.9933 9.02709L34.0662 8.71833L34.1218 8.39917L34.1634 8.07653L34.1912 7.75043L34.2016 7.41738ZM34.0038 5.80768L34.5036 5.68277L34.5175 5.73482L34.5313 5.79032L34.5452 5.84236L34.5556 5.89786L34.566 5.94991L34.5765 6.00195L34.5903 6.05745L34.6008 6.11297L34.6077 6.165L34.6181 6.22052L34.6285 6.27254L34.6355 6.32806L34.6459 6.38009L34.6528 6.43561L34.6598 6.4911L34.6667 6.54315L34.6736 6.59865L34.6806 6.65417L34.6841 6.70619L34.691 6.76171L34.6945 6.81721L34.6979 6.87271L34.7014 6.92475L34.7084 6.98027V7.03577L34.7118 7.09127L34.7153 7.14679V7.19881L34.7188 7.25433V7.30983V7.36535V7.42085L34.2016 7.41738V7.36535V7.31678L34.1981 7.26473V7.21618L34.1947 7.16413V7.11208L34.1912 7.06353L34.1877 7.01148V6.96291L34.1808 6.91088L34.1773 6.85884L34.1738 6.81026L34.1704 6.75824L34.1634 6.70619L34.1565 6.65762L34.153 6.60907L34.1461 6.55702L34.1391 6.50497L34.1322 6.45642L34.1252 6.40785L34.1148 6.3558L34.1079 6.30377L34.0975 6.2552L34.0905 6.20663L34.0801 6.15805L34.0697 6.10603L34.0593 6.05745L34.0489 6.00541L34.0385 5.95685L34.0281 5.90828L34.0142 5.8597L34.0038 5.81113V5.80768ZM34.0038 5.81113V5.80768L34.0176 5.87012L34.0038 5.81113ZM33.6358 5.58912L33.5109 5.08608L33.5525 5.07566L33.5942 5.06874L33.6324 5.06526L33.674 5.06179H33.7157H33.7573L33.799 5.06526L33.8337 5.07221L33.8753 5.07913L33.917 5.08955L33.9517 5.09995L33.9899 5.11037L34.0281 5.12424L34.0628 5.14158L34.0975 5.15894L34.1287 5.17628L34.1634 5.20057L34.1981 5.22138L34.2294 5.24567L34.2571 5.27341L34.2884 5.30117L34.3161 5.32893L34.3404 5.35667L34.3647 5.39137L34.389 5.42258L34.4099 5.45381L34.4307 5.49197L34.4515 5.52667L34.4654 5.5683L34.4793 5.60299L34.4932 5.64114L34.5036 5.68277L34.0038 5.80768L33.9968 5.79379L33.9933 5.77992L33.9864 5.76258L33.9795 5.74869L33.976 5.73829L33.969 5.7244L33.9586 5.714L33.9517 5.70014L33.9413 5.68972L33.9309 5.67585L33.9205 5.66543L33.9135 5.65849L33.8996 5.64809L33.8892 5.64114L33.8788 5.63075L33.8649 5.6238L33.851 5.61686L33.8371 5.60993L33.8267 5.60299L33.8129 5.59951L33.799 5.59259L33.7816 5.58912L33.7712 5.58565L33.7573 5.58217H33.74L33.7261 5.5787H33.7122H33.6983L33.681 5.58217H33.6671L33.6497 5.58565L33.6358 5.58912ZM33.497 5.6689L33.1291 5.30117L33.1395 5.29075L33.1499 5.28383L33.1603 5.26994L33.1707 5.26301L33.1811 5.25607L33.1881 5.24567L33.2054 5.23525L33.2124 5.22831L33.2228 5.22138L33.2367 5.21097L33.2471 5.20402L33.2575 5.1971L33.2714 5.18668L33.2853 5.17975L33.2922 5.17628L33.3026 5.16934L33.3165 5.16239L33.3304 5.15199L33.3443 5.14852L33.3512 5.14158L33.3686 5.13465L33.3825 5.13118L33.3929 5.12424L33.3998 5.12076L33.4137 5.11729L33.4345 5.11037L33.4449 5.10689L33.4588 5.09995L33.4727 5.09648L33.4831 5.09302L33.497 5.08955L33.5109 5.08608L33.6358 5.58912H33.6324H33.6289L33.6185 5.59259L33.615 5.59604H33.6115L33.6011 5.59951H33.6046H33.6011L33.5907 5.60299L33.5872 5.60646H33.5838L33.5803 5.60993L33.5734 5.61341H33.5664V5.61686H33.563L33.5595 5.62033L33.5491 5.6238L33.5456 5.62727L33.5421 5.63075H33.5387L33.5352 5.63422L33.5248 5.64114L33.5178 5.64809L33.5213 5.64462L33.5178 5.64809L33.5074 5.65503L33.5039 5.65849L33.5005 5.66543L33.497 5.6689ZM29.6339 8.79119L33.1291 5.30117L33.497 5.6689L30.0018 9.15892L29.738 9.22137L29.6339 8.79119ZM30.0018 9.15892L29.8872 9.26994L29.738 9.22137L30.0018 9.15892ZM27.1278 7.80592L29.9011 8.72875L29.738 9.22137L26.9647 8.29509L26.8016 8.13203L27.1278 7.80592ZM26.9647 8.29509L26.8432 8.25694L26.8016 8.13203L26.9647 8.29509ZM26.3677 5.20057L27.2944 7.96899L26.8016 8.13203L25.8783 5.36361L25.9408 5.09648L26.3677 5.20057ZM25.8783 5.36361L25.8262 5.21097L25.9408 5.09648L25.8783 5.36361ZM29.8005 1.97074L26.3052 5.46421L25.9408 5.09648L29.4325 1.60645L29.8005 1.97074ZM29.4325 1.17975L29.8005 0.812014L29.8282 0.843246L29.856 0.874457L29.8803 0.905689L29.9046 0.940373L29.9254 0.975057L29.9462 1.00976L29.9636 1.04792L29.9809 1.08262L29.9948 1.12078L30.0052 1.15893L30.0157 1.19709L30.0226 1.23525L30.0295 1.27342L30.0365 1.31158L30.04 1.35321V1.39137V1.42954L30.0365 1.47117L30.0295 1.50933L30.0261 1.54748L30.0157 1.58564L30.0052 1.62382L29.9948 1.66197L29.9809 1.70013L29.9636 1.73829L29.9462 1.77299L29.9254 1.80767L29.9046 1.84236L29.8803 1.87706L29.856 1.90827L29.8282 1.94298L29.8005 1.97074L29.4325 1.60645L29.443 1.59259L29.4534 1.58217L29.4638 1.57177L29.4707 1.5579L29.4811 1.54401L29.4881 1.53014L29.4915 1.51972L29.4985 1.50586L29.5054 1.49199L29.5089 1.4781L29.5124 1.46423L29.5158 1.45036L29.5193 1.43647V1.41913L29.5228 1.40526V1.39137V1.3775L29.5193 1.36363V1.34974L29.5158 1.3324L29.5124 1.31853L29.5089 1.30464L29.5054 1.29077L29.4985 1.2769L29.4915 1.26301L29.4846 1.24914L29.4811 1.23872L29.4707 1.22832L29.4638 1.21443L29.4534 1.20056L29.443 1.19017L29.4325 1.17975ZM29.4325 1.17975L29.377 1.12425L29.4325 1.17975ZM29.2902 1.09996L29.4152 0.596925L29.4291 0.600398H29.4395L29.4534 0.607322L29.4672 0.610794L29.4811 0.614267L29.495 0.621212L29.5054 0.624685L29.5228 0.628136L29.5332 0.635081L29.5471 0.642026L29.561 0.645499L29.5714 0.652423L29.5853 0.659368L29.5957 0.662841L29.6096 0.669786L29.62 0.67671L29.6373 0.687128L29.6477 0.694052L29.6582 0.700997L29.6686 0.70447L29.6824 0.714866L29.6929 0.721811L29.6998 0.728757L29.7137 0.739153L29.7276 0.749571L29.738 0.756516L29.7484 0.76344L29.7588 0.773858L29.7692 0.784255L29.7796 0.794672L29.79 0.801596L29.8005 0.812014L29.4325 1.17975L29.4291 1.17628L29.4256 1.16935L29.4187 1.16588L29.4152 1.16241L29.4082 1.15546L29.4048 1.15199H29.4013V1.14852L29.3944 1.14507L29.3874 1.14159L29.3805 1.13465H29.377L29.3701 1.13118L29.3666 1.1277H29.3631L29.3596 1.12425L29.3527 1.12078H29.3492L29.3458 1.11731L29.3388 1.11383H29.3353L29.3319 1.11036H29.3284L29.318 1.10689H29.3145L29.3111 1.10344H29.3076H29.3041L29.2972 1.09996H29.2902ZM29.2902 1.09996L29.2729 1.09302L29.2902 1.09996ZM21.4494 5.7695L20.9461 5.64114L21.0433 5.2977L21.1544 4.96119L21.2828 4.63161L21.4286 4.3159L21.5848 4.00716L21.7583 3.70879L21.9423 3.42086L22.1436 3.14678L22.3553 2.87967L22.5775 2.6264L22.81 2.38703L23.0564 2.1546L23.3133 1.93951L23.5771 1.73481L23.8513 1.54401L24.1359 1.36708L24.4275 1.20056L24.726 1.05139L25.0314 0.916086L25.3438 0.794672L25.6631 0.687128L25.9859 0.596925L26.3156 0.520591L26.6488 0.461621L26.989 0.41652L27.3291 0.392233L27.6728 0.381836L28.0199 0.388781L28.367 0.413047L28.7175 0.454676L29.0681 0.51714L29.4152 0.596925L29.2902 1.09996L28.964 1.02363L28.6412 0.968133L28.3184 0.929976L27.9956 0.905689L27.6762 0.898744L27.3569 0.909162L27.0411 0.933428L26.7287 0.975057L26.4198 1.0271L26.1143 1.09649L25.8158 1.18322L25.5208 1.28035L25.2327 1.39137L24.9481 1.51972L24.6704 1.6585L24.3997 1.81115L24.1394 1.97419L23.8825 2.15112L23.6396 2.34192L23.4035 2.54314L23.1744 2.75476L22.9592 2.98027L22.751 3.2127L22.5566 3.45902L22.3727 3.71574L22.1991 3.9794L22.0395 4.25693L21.8937 4.54141L21.7618 4.83283L21.6438 5.1381L21.5362 5.44687L21.4494 5.7695ZM21.2481 7.37227H20.7309V7.32025V7.26473V7.20923L20.7344 7.15373V7.10169L20.7379 7.04617L20.7413 6.99067L20.7448 6.93517L20.7483 6.87965L20.7517 6.82763L20.7552 6.77211L20.7622 6.71661L20.7656 6.66456L20.7726 6.60907L20.776 6.55355L20.783 6.50152L20.7899 6.446L20.7969 6.39398L20.8073 6.33846L20.8142 6.28296L20.8212 6.23091L20.8316 6.17542L20.842 6.12337L20.8524 6.06787L20.8628 6.01582L20.8732 5.96033L20.8836 5.90828L20.894 5.85623L20.9079 5.80073L20.9183 5.74869L20.9322 5.69319L20.9461 5.64114L21.4494 5.7695L21.4355 5.81808L21.4251 5.86665L21.4112 5.91868L21.4008 5.96378L21.3904 6.01582L21.38 6.0644L21.3696 6.11642L21.3592 6.165L21.3522 6.21357L21.3418 6.26215L21.3349 6.31417L21.3244 6.36274L21.3175 6.41479L21.3106 6.46334L21.3036 6.51192L21.2967 6.56396L21.2932 6.61599L21.2863 6.66456L21.2828 6.71314L21.2759 6.76516L21.2724 6.81374L21.2689 6.86578L21.2654 6.91781L21.262 6.96638L21.2585 7.01843L21.255 7.067V7.11903L21.2516 7.17108V7.21963V7.27167L21.2481 7.32025V7.37227ZM21.3106 8.87097L20.9426 8.50324L20.8732 8.73914L20.8663 8.69751L20.8559 8.65588L20.8489 8.61426L20.842 8.57263L20.8316 8.52753L20.8246 8.4859L20.8177 8.44427L20.8107 8.40264L20.8073 8.35754L20.8003 8.31591L20.7934 8.27428L20.7864 8.23265L20.783 8.18755L20.776 8.14592L20.7726 8.10429L20.7691 8.05919L20.7622 8.01756L20.7587 7.97593L20.7552 7.93083L20.7517 7.8892L20.7483 7.84757L20.7448 7.80247V7.76084L20.7413 7.71919L20.7379 7.67411V7.63246L20.7344 7.58738V7.54573V7.50411L20.7309 7.459V7.41738V7.37227H21.2481L21.2516 7.41045V7.45208V7.49024V7.53187L21.255 7.57002V7.61165V7.64983L21.2585 7.68798L21.262 7.72961V7.76777L21.2654 7.8094L21.2689 7.84757L21.2724 7.8892L21.2759 7.92736L21.2793 7.96899L21.2828 8.00714L21.2863 8.0453L21.2932 8.08693L21.2967 8.12511L21.3036 8.16326L21.3071 8.20489L21.314 8.24305L21.3175 8.28123L21.3244 8.32285L21.3314 8.36101L21.3383 8.39917L21.3453 8.4408L21.3522 8.47895L21.3592 8.51713L21.3661 8.55876L21.373 8.59691L21.38 8.63507L21.3106 8.87097ZM21.38 8.63507L21.4077 8.77037L21.3106 8.87097L21.38 8.63507ZM8.65206 20.7877L20.9426 8.50324L21.3106 8.87097L9.01998 21.1554L8.78396 21.2248L8.65206 20.7877ZM9.01998 21.1554L8.91933 21.2526L8.78396 21.2248L9.01998 21.1554ZM7.52055 21.093V20.5761H7.56567H7.60732L7.65244 20.5795H7.69409H7.73574L7.78087 20.583H7.82252L7.86764 20.5865L7.90929 20.59H7.95094L7.99606 20.5934L8.03771 20.5969L8.07936 20.6004L8.12101 20.6038L8.16614 20.6108L8.20779 20.6143L8.25291 20.6177L8.29456 20.6212L8.33621 20.6281L8.37787 20.6316L8.42298 20.6385L8.46464 20.6455L8.50629 20.6524L8.55141 20.6559L8.59306 20.6628L8.63471 20.6697L8.67636 20.6767L8.71801 20.6871L8.76314 20.694L8.80479 20.701L8.84644 20.7114L8.8881 20.7183L8.78396 21.2248L8.74579 21.2179L8.7076 21.2109L8.66595 21.204L8.62778 21.1971L8.58959 21.1901L8.54794 21.1832L8.50975 21.1763L8.47158 21.1693L8.42993 21.1624L8.39174 21.1589L8.35357 21.152L8.31192 21.1485L8.27373 21.1416L8.23556 21.1381L8.19391 21.1312L8.15572 21.1277L8.11755 21.1242L8.07589 21.1207L8.03771 21.1173L7.99606 21.1138L7.95788 21.1103H7.91623L7.87805 21.1069L7.8364 21.1034H7.79822L7.76004 21.0999H7.71838L7.68021 21.0965H7.63856H7.60037H7.55872L7.52055 21.093ZM1.04379 27.5665H0.526611L0.537034 27.2092L0.561323 26.8519L0.606447 26.5015L0.668921 26.158L0.748756 25.8215L0.842467 25.4885L0.950065 25.1624L1.07502 24.8467L1.21733 24.5379L1.37006 24.2361L1.54013 23.9412L1.72061 23.6602L1.91498 23.3827L2.12324 23.119L2.34539 22.8658L2.57447 22.6229L2.81743 22.394L3.07081 22.1719L3.3346 21.9672L3.6088 21.7695L3.89342 21.5891L4.18845 21.4191L4.49042 21.2665L4.79934 21.1277L5.11518 21.0028L5.44145 20.8918L5.77467 20.7981L6.11135 20.7183L6.45497 20.6559L6.80554 20.6143L7.16304 20.5865L7.52055 20.5761V21.093L7.18733 21.1034L6.8576 21.1277L6.5348 21.1693L6.21547 21.2248L5.90309 21.2977L5.59417 21.3844L5.29568 21.4885L5.00065 21.603L4.71256 21.7348L4.43488 21.877L4.16415 22.0331L3.90036 22.1997L3.64699 22.3801L3.40055 22.5743L3.168 22.7756L2.94239 22.9906L2.72719 23.2162L2.5224 23.4486L2.3315 23.6949L2.15102 23.9482L1.98093 24.2118L1.82475 24.4824L1.68244 24.76L1.55401 25.0479L1.43947 25.3428L1.33534 25.6411L1.24857 25.9499L1.17568 26.2621L1.12015 26.5813L1.0785 26.9039L1.0542 27.2335L1.04379 27.5665ZM7.52055 34.0401V34.557L7.16304 34.55L6.80554 34.5223L6.45497 34.4772L6.11135 34.4147L5.77467 34.3384L5.44145 34.2448L5.11518 34.1337L4.79934 34.0089L4.49042 33.8666L4.18845 33.714L3.89342 33.544L3.6088 33.3636L3.33807 33.1693L3.07081 32.9611L2.81743 32.7426L2.57447 32.5102L2.34539 32.2673L2.12324 32.0141L1.91498 31.7504L1.72061 31.4763L1.54013 31.1919L1.37006 30.9004L1.21733 30.5986L1.07502 30.2899L0.950065 29.9707L0.842467 29.6446L0.748756 29.315L0.668921 28.975L0.606447 28.6316L0.561323 28.2812L0.537034 27.9273L0.526611 27.5665H1.04379L1.0542 27.8996L1.0785 28.2292L1.12015 28.5518L1.17568 28.871L1.24857 29.1866L1.33534 29.4919L1.43947 29.7938L1.55401 30.0852L1.68244 30.3731L1.82475 30.6507L1.98093 30.9247L2.15102 31.1849L2.3315 31.4382L2.5224 31.6845L2.72719 31.9204L2.94239 32.1424L3.168 32.3575L3.40055 32.5622L3.64699 32.753L3.90036 32.9334L4.16415 33.1034L4.43488 33.2595L4.71256 33.4017L5.00065 33.5301L5.29568 33.6481L5.59417 33.7487L5.90309 33.8354L6.21547 33.9083L6.5348 33.9637L6.8576 34.0054L7.18733 34.0297L7.52055 34.0401ZM13.9973 27.5665H14.5145L14.5075 27.9273L14.4798 28.2812L14.4346 28.6316L14.3722 28.975L14.2958 29.315L14.2021 29.6446L14.091 29.9707L13.9661 30.2899L13.8238 30.5986L13.671 30.9004L13.501 31.1919L13.3205 31.4763L13.1261 31.7504L12.9178 32.0141L12.6992 32.2673L12.4666 32.5102L12.2237 32.7426L11.9703 32.9611L11.7065 33.1693L11.4323 33.3636L11.1477 33.544L10.8561 33.714L10.5541 33.8666L10.2418 34.0089L9.9259 34.1337L9.59963 34.2448L9.26989 34.3384L8.92975 34.4147L8.58612 34.4772L8.23556 34.5223L7.88152 34.55L7.52055 34.557V34.0401L7.85375 34.0297L8.1835 34.0054L8.50629 33.9637L8.82561 33.9083L9.14147 33.8354L9.44691 33.7487L9.74888 33.6481L10.0404 33.5301L10.3285 33.4017L10.6062 33.2595L10.8804 33.1034L11.1407 32.9334L11.3941 32.753L11.6405 32.5622L11.8766 32.3575L12.0987 32.1424L12.3139 31.9204L12.5187 31.6845L12.7096 31.4382L12.8901 31.1849L13.0602 30.9247L13.2163 30.6507L13.3586 30.3731L13.4871 30.0852L13.6051 29.7938L13.7057 29.4919L13.7925 29.1866L13.8654 28.871L13.9209 28.5518L13.9626 28.2292L13.9869 27.8996L13.9973 27.5665ZM13.9348 26.0678L14.3027 26.4356L14.3722 26.1997L14.3826 26.2413L14.3895 26.2864L14.3965 26.328L14.4069 26.3697L14.4138 26.4113L14.4208 26.4529L14.4277 26.498L14.4346 26.5396L14.4416 26.5813L14.4485 26.6229L14.452 26.6645L14.4589 26.7096L14.4624 26.7513L14.4693 26.7964L14.4728 26.838L14.4798 26.8796L14.4832 26.9247L14.4867 26.9664L14.4902 27.008L14.4936 27.0496L14.4971 27.0947L14.5006 27.1364L14.5041 27.1815V27.2231L14.5075 27.2647V27.3098L14.511 27.3514V27.3931L14.5145 27.4347V27.4798V27.5249V27.5665H13.9973V27.5284V27.4867L13.9938 27.4486V27.4104V27.3688L13.9904 27.3306V27.289L13.9869 27.2508V27.2092L13.9834 27.171L13.9799 27.1329L13.9765 27.0913L13.973 27.0531L13.9695 27.0115L13.9661 26.9733L13.9626 26.9351L13.9591 26.8935L13.9556 26.8553L13.9487 26.8137L13.9452 26.7756L13.9383 26.7374L13.9348 26.6958L13.9279 26.6576L13.9209 26.6194L13.9175 26.5778L13.9105 26.5396L13.9036 26.5015L13.8966 26.4633L13.8897 26.4217L13.8828 26.3835L13.8723 26.3454L13.8654 26.3037L13.9348 26.0678ZM13.8654 26.3037L13.8376 26.1685L13.9348 26.0678L13.8654 26.3037ZM17.2461 23.4937L14.3027 26.4356L13.9348 26.0678L16.8782 23.1294H17.2461V23.4937ZM16.8782 23.1294L17.0621 22.9455L17.2461 23.1294H16.8782ZM18.1659 24.7808L16.8782 23.4937L17.2461 23.1294L18.5303 24.413L18.1659 24.7808ZM18.9607 24.413L19.3252 24.7808L19.2939 24.8085L19.2627 24.8397L19.2315 24.8606L19.2002 24.8848L19.162 24.9057L19.1273 24.9299L19.0892 24.9438L19.0544 24.9612L19.0163 24.975L18.9781 24.9889L18.9399 24.9993L18.9017 25.0063L18.8636 25.0132L18.8254 25.0167L18.7837 25.0201H18.7455H18.7074L18.6657 25.0167L18.6275 25.0132L18.5893 25.0063L18.5512 24.9993L18.513 24.9889L18.4748 24.975L18.4366 24.9612L18.4019 24.9438L18.3672 24.9299L18.329 24.9057L18.2908 24.8848L18.2596 24.8606L18.2284 24.8397L18.1971 24.8085L18.1659 24.7808L18.5303 24.413L18.5442 24.4269L18.5546 24.4338L18.5685 24.4442L18.5824 24.4547L18.5928 24.4616L18.6032 24.4685L18.6171 24.4755L18.631 24.4824L18.6449 24.4859L18.6588 24.4893L18.6727 24.4928L18.6865 24.4963L18.7039 24.4998L18.7178 24.5032H18.7317H18.7455H18.7594H18.7733L18.7872 24.4998L18.8045 24.4963L18.8184 24.4928L18.8323 24.4893L18.8462 24.4859L18.8601 24.4824L18.874 24.4755L18.8878 24.4685L18.8983 24.4616L18.9087 24.4547L18.9226 24.4442L18.9364 24.4338L18.9468 24.4269L18.9607 24.413ZM19.6063 24.4998L19.3252 24.7808L18.9607 24.413L19.2384 24.1355L19.6063 24.4998ZM20.4949 24.1355L20.1304 24.4998L20.1166 24.4893L20.1027 24.4755L20.0853 24.4651L20.0714 24.4547L20.0576 24.4442L20.0402 24.4338L20.0228 24.4269L20.009 24.42L19.9916 24.413L19.9743 24.4096L19.9569 24.4026L19.9395 24.3991L19.9222 24.3957H19.9048L19.8875 24.3922H19.8666H19.8493L19.8319 24.3957H19.8146L19.7972 24.3991L19.7799 24.4026L19.7625 24.4096L19.7452 24.413L19.7278 24.42L19.7105 24.4269L19.6966 24.4338L19.6792 24.4442L19.6653 24.4547L19.648 24.4651L19.6341 24.4755L19.6202 24.4893L19.6063 24.4998L19.2384 24.1355L19.2731 24.1043L19.3078 24.073L19.3425 24.0453L19.3807 24.021L19.4189 23.9967L19.4536 23.9759L19.4953 23.9585L19.5334 23.9412L19.5751 23.9239L19.6167 23.91L19.6584 23.8996L19.7 23.8927L19.7417 23.8857L19.7833 23.8788L19.825 23.8753H19.8666H19.9118L19.9534 23.8788L19.9951 23.8857L20.0367 23.8927L20.0784 23.8996L20.12 23.91L20.1617 23.9239L20.2033 23.9412L20.2415 23.9585L20.2797 23.9759L20.3179 23.9967L20.356 24.021L20.3942 24.0453L20.4289 24.073L20.4636 24.1043L20.4949 24.1355ZM20.4949 24.1355L20.5782 24.2153L20.4949 24.1355ZM20.4984 25.3879L20.1304 25.0236L20.1443 25.0097L20.1547 24.9959L20.1686 24.9785L20.179 24.9646L20.186 24.9508L20.1964 24.9334L20.2033 24.9161L20.2103 24.9022L20.2172 24.8848L20.2241 24.8675L20.2276 24.8501L20.2311 24.8328L20.2346 24.8155L20.238 24.7981V24.7808V24.76V24.7426V24.7287L20.2346 24.7079L20.2311 24.6906L20.2276 24.6732L20.2241 24.6559L20.2172 24.642L20.2103 24.6247L20.2033 24.6073L20.1964 24.5899L20.186 24.5726L20.179 24.5587L20.1686 24.5448L20.1547 24.531L20.1443 24.5136L20.1304 24.4998L20.4949 24.1355L20.5261 24.1667L20.5574 24.2014L20.5851 24.2361L20.6094 24.2743L20.6337 24.3124L20.6546 24.3506L20.6754 24.3887L20.6893 24.4269L20.7066 24.4651L20.7205 24.5102L20.7309 24.5518L20.7413 24.5934L20.7483 24.635L20.7517 24.6732L20.7552 24.7183V24.76V24.8016L20.7517 24.8467L20.7483 24.8883L20.7413 24.9299L20.7309 24.9716L20.7205 25.0132L20.7066 25.0548L20.6927 25.093L20.6754 25.1346L20.6546 25.1728L20.6337 25.2109L20.6129 25.2491L20.5851 25.2873L20.5574 25.322L20.5296 25.3566L20.4984 25.3879ZM20.4949 25.3913L20.1304 25.0236L20.4984 25.3879V25.3913H20.4949ZM19.8493 25.3046L20.1304 25.0236L20.4949 25.3913L20.2172 25.6723L19.8493 25.3046ZM20.2172 26.0991L19.8493 26.4633L19.8215 26.4321L19.7938 26.4009L19.7695 26.3697L19.7452 26.335L19.7243 26.3003L19.7035 26.2656L19.6862 26.2274L19.6688 26.1927L19.6549 26.1546L19.641 26.1164L19.6341 26.0783L19.6237 26.0401L19.6167 26.0019L19.6133 25.9638L19.6098 25.9221V25.884V25.8458L19.6133 25.8042L19.6167 25.766L19.6237 25.7279L19.6341 25.6897L19.641 25.6515L19.6549 25.6134L19.6688 25.5752L19.6862 25.5405L19.7035 25.5023L19.7243 25.4677L19.7452 25.433L19.7695 25.3983L19.7938 25.3671L19.8215 25.3358L19.8493 25.3046L20.2172 25.6723L20.2033 25.6828L20.1964 25.6932L20.186 25.707L20.1756 25.7209L20.1686 25.7313L20.1617 25.7417L20.1547 25.7556L20.1513 25.7695L20.1443 25.7834L20.1409 25.7972L20.1374 25.8111L20.1339 25.825L20.1304 25.8423L20.127 25.8562V25.8701V25.884V25.8978V25.9117L20.1304 25.9291L20.1339 25.9429L20.1374 25.9568L20.1409 25.9707L20.1443 25.9846L20.1513 25.9984L20.1547 26.0123L20.1617 26.0262L20.1686 26.0366L20.1756 26.047L20.186 26.0609L20.1964 26.0748L20.2033 26.0852L20.2172 26.0991ZM26.5447 33.1554L19.8493 26.4633L20.2172 26.0991L26.9126 32.7877V32.7912L26.5447 33.1554ZM26.9126 32.7877V32.7912V32.7877ZM32.9521 32.8189L33.3165 33.1866L33.136 33.3532L32.9521 33.5128L32.7577 33.6585L32.5633 33.7938L32.3585 33.9186L32.1538 34.0331L31.942 34.1372L31.7268 34.2309L31.5082 34.3107L31.286 34.3801L31.0639 34.439L30.8383 34.4876L30.6127 34.5258L30.3836 34.5535L30.1545 34.5674L29.9219 34.5709L29.6929 34.5639L29.4638 34.5466L29.2347 34.5188L29.0091 34.4807L28.7835 34.4286L28.5613 34.3696L28.3392 34.2968L28.124 34.2135L27.9088 34.1199L27.6971 34.0123L27.4923 33.8978L27.291 33.7729L27.0966 33.6342L26.9057 33.485L26.7217 33.3254L26.5447 33.1554L26.9126 32.7912L27.0688 32.9438L27.2354 33.0861L27.4055 33.2179L27.5791 33.3393L27.7596 33.4538L27.9435 33.5579L28.1309 33.6515L28.3184 33.7348L28.5127 33.8076L28.7106 33.8735L28.9084 33.9256L29.1097 33.9707L29.3111 34.0054L29.5158 34.0331L29.7206 34.047L29.9254 34.054L30.1302 34.0505L30.335 34.0366L30.5398 34.0123L30.7411 33.9811L30.9424 33.936L31.1437 33.884L31.3381 33.8215L31.5325 33.7487L31.7268 33.6654L31.9143 33.5752L32.0982 33.4746L32.2787 33.3601L32.4557 33.2387L32.6258 33.1103L32.7924 32.9681L32.9521 32.8189ZM32.9798 26.7825L33.3443 26.4148H33.3478L33.5144 26.5952L33.674 26.7825L33.8198 26.9733L33.9552 27.171L34.0801 27.3723L34.1947 27.577L34.2988 27.7886L34.3925 28.0037L34.4723 28.2222L34.5417 28.4443L34.6008 28.6663L34.6494 28.8918L34.6875 29.1207L34.7153 29.3497L34.7292 29.5787L34.7327 29.8076L34.7257 30.0366L34.7084 30.2656L34.6806 30.4945L34.6424 30.7201L34.5903 30.9455L34.5313 31.1676L34.4584 31.3896L34.3751 31.6082L34.2814 31.8198L34.1773 32.0314L34.0593 32.2361L33.9343 32.4373L33.7955 32.635L33.6462 32.8224L33.4866 33.0062L33.3165 33.1866L32.9521 32.8189L33.1048 32.6593L33.2471 32.4928L33.379 32.3263L33.5005 32.1494L33.615 31.9724L33.7191 31.7886L33.8129 31.6012L33.8962 31.4104L33.969 31.2161L34.035 31.0184L34.0905 30.8207L34.1322 30.6194L34.1704 30.4182L34.1947 30.2135L34.2085 30.0088L34.2155 29.8042L34.212 29.5995L34.1981 29.3948L34.1738 29.1936L34.1426 28.9889L34.0975 28.7877L34.0454 28.59L33.9829 28.3922L33.91 28.1979L33.8267 28.0071L33.7365 27.8163L33.6358 27.6324L33.5213 27.452L33.3998 27.2786L33.2714 27.1051L33.1291 26.9421L32.9798 26.7825ZM33.3443 26.4148H33.3478H33.3443ZM32.9486 26.7513L33.3165 26.387H33.32V26.3905H33.3235V26.3939L33.3443 26.4182L33.3269 26.3974L33.3061 26.3766L33.3304 26.3974L33.3478 26.4217H33.3512L33.3096 26.3835L33.3512 26.4252H33.3547L33.3339 26.4044H33.3373L33.3165 26.387L33.3373 26.4078L33.3582 26.4286L33.3408 26.4078V26.4113H33.3443V26.4148L32.9798 26.7825L32.9764 26.779H32.9729V26.7756L32.9521 26.7547L32.9694 26.7721L32.9902 26.7929L32.9694 26.7721L32.9486 26.7478L32.9868 26.786L32.9451 26.7443L32.9625 26.7651L32.9833 26.7825L32.959 26.7617L32.9417 26.7409L32.959 26.7617L32.9555 26.7582V26.7547H32.9521L32.9486 26.7513ZM26.6211 19.6949L33.3165 26.387L32.9486 26.7513L26.2566 20.0626L26.6211 19.6949ZM25.8297 20.0626L25.4618 19.6949L25.493 19.6671L25.5243 19.6394L25.5555 19.6151L25.5867 19.5908L25.6249 19.57L25.6631 19.5492L25.6978 19.5319L25.7325 19.5145L25.7707 19.5006L25.8089 19.4902L25.8471 19.4763L25.8853 19.4694L25.9234 19.4625L25.9616 19.459L26.0033 19.4555H26.0414H26.0796L26.1213 19.459L26.1594 19.4625L26.1976 19.4694L26.2358 19.4763L26.2775 19.4902L26.3122 19.5006L26.3504 19.5145L26.3851 19.5319L26.4232 19.5492L26.458 19.57L26.4961 19.5908L26.5274 19.6151L26.5586 19.6394L26.5898 19.6671L26.6211 19.6949L26.2566 20.0626L26.2428 20.0488L26.2323 20.0418L26.2185 20.0314L26.2046 20.021L26.1942 20.0141L26.1837 20.0071L26.1699 20.0002L26.156 19.9967L26.1421 19.9898L26.1282 19.9863L26.1143 19.9829L26.1004 19.9794L26.0831 19.9759H26.0692L26.0553 19.9724H26.0414H26.0275L26.0137 19.9759H25.9998L25.9824 19.9794L25.9685 19.9829L25.9547 19.9863L25.9408 19.9898L25.9269 19.9967L25.913 20.0002L25.8991 20.0071L25.8887 20.0141L25.8783 20.021L25.8644 20.0314L25.8505 20.0418L25.8401 20.0488L25.8297 20.0626ZM25.1807 19.9759L25.4618 19.6949L25.8297 20.0626L25.5486 20.3402V20.3436L25.1807 19.9759ZM25.5486 20.3402V20.3436V20.3402ZM24.2921 20.3402L24.6565 19.9759L24.6704 19.9898L24.6843 20.0002L24.7017 20.0106L24.7155 20.021L24.7294 20.0314L24.7468 20.0418L24.7641 20.0488L24.7815 20.0557L24.7954 20.0626L24.8127 20.0696L24.8301 20.0731L24.8474 20.0765L24.8648 20.08H24.8821L24.903 20.0835H24.9203H24.9377L24.955 20.08H24.9724L24.9897 20.0765L25.0071 20.0731L25.0245 20.0696L25.0418 20.0626L25.0592 20.0557L25.0765 20.0488L25.0904 20.0418L25.1078 20.0314L25.1216 20.021L25.139 20.0106L25.1529 20.0002L25.1668 19.9898L25.1807 19.9759L25.5486 20.3436L25.5139 20.3749L25.4791 20.4026L25.4444 20.4304L25.4063 20.4547L25.3715 20.4789L25.3334 20.4998L25.2917 20.5206L25.2535 20.5379L25.2119 20.5518L25.1737 20.5657L25.1286 20.5761L25.0904 20.5865L25.0453 20.5934L25.0036 20.5969L24.962 20.6004H24.9203H24.8752L24.8336 20.5969L24.7919 20.5934L24.7502 20.5865L24.7086 20.5761L24.667 20.5657L24.6253 20.5518L24.5837 20.5379L24.5455 20.5206L24.5073 20.4998L24.4691 20.4789L24.4309 20.4547L24.3927 20.4304L24.358 20.4026L24.3233 20.3749L24.2921 20.3436V20.3402ZM24.2921 20.3436V20.3402L24.2088 20.2604L24.2921 20.3436ZM24.2886 19.0878L24.6565 19.4521L24.6427 19.4659L24.6322 19.4798L24.6218 19.4972L24.6079 19.511L24.5975 19.5284L24.5906 19.5423L24.5837 19.5596L24.5767 19.577L24.5698 19.5908L24.5628 19.6082L24.5594 19.6255L24.5559 19.6429L24.5524 19.6602L24.5489 19.6776V19.6949V19.7157V19.7331V19.7469L24.5524 19.7678L24.5559 19.7851L24.5594 19.8024L24.5628 19.8198L24.5698 19.8337L24.5767 19.851L24.5837 19.8718L24.5906 19.8857L24.601 19.9031L24.6114 19.9169L24.6184 19.9308L24.6322 19.9447L24.6427 19.962L24.6565 19.9759L24.2921 20.3402L24.2608 20.309L24.2296 20.2743L24.2018 20.2396L24.1775 20.2014L24.1532 20.1633L24.1324 20.1286L24.1116 20.0869L24.0977 20.0488L24.0804 20.0106L24.0665 19.9655L24.0561 19.9239L24.0457 19.8822L24.0387 19.8406L24.0352 19.8024L24.0318 19.7573V19.7157V19.6741L24.0352 19.629L24.0387 19.5874L24.0457 19.5457L24.0561 19.5041L24.0665 19.4625L24.0804 19.4208L24.0942 19.3792L24.1116 19.341L24.1324 19.3029L24.1532 19.2647L24.1775 19.2266L24.2018 19.1919L24.2296 19.1537L24.2574 19.119L24.2886 19.0878ZM24.2921 19.0843L24.6565 19.4521L24.2886 19.0878H24.2921V19.0843ZM24.9377 19.171L24.6565 19.4521L24.2921 19.0843L24.5732 18.8033L24.9377 19.171ZM24.5732 18.3801L24.9377 18.0123L24.9654 18.0436L24.9932 18.0748L25.021 18.106L25.0418 18.1407L25.0626 18.1754L25.0835 18.2101L25.1043 18.2482L25.1182 18.2829L25.1321 18.3211L25.1459 18.3593L25.1564 18.3974L25.1633 18.4356L25.1702 18.4737L25.1737 18.5119L25.1772 18.5535V18.5917V18.6299L25.1737 18.6715L25.1702 18.7097L25.1633 18.7478L25.1564 18.786L25.1459 18.8241L25.1321 18.8623L25.1182 18.9005L25.1043 18.9351L25.0835 18.9733L25.0626 19.008L25.0418 19.0427L25.021 19.0774L24.9932 19.1086L24.9654 19.1398L24.9377 19.171L24.5732 18.8033L24.5837 18.7929L24.5941 18.7825L24.601 18.7721L24.6114 18.7582L24.6184 18.7443L24.6253 18.7305L24.6322 18.7201L24.6392 18.7062L24.6427 18.6923L24.6461 18.6784L24.6496 18.6646L24.6531 18.6507L24.6565 18.6333L24.66 18.6195V18.6056V18.5917V18.5778V18.5639L24.6565 18.5501L24.6531 18.5327L24.6496 18.5188L24.6461 18.505L24.6427 18.4911L24.6392 18.4772L24.6322 18.4633L24.6253 18.4529L24.6184 18.4391L24.6114 18.4252L24.601 18.4113L24.5941 18.4009L24.5837 18.3905L24.5732 18.3801ZM23.65 16.7253L24.9377 18.0123L24.5732 18.3801L23.2855 17.093V16.7253H23.65ZM23.2855 17.093L23.1016 16.9091L23.2855 16.7253V17.093ZM26.5933 14.1511L23.65 17.093L23.2855 16.7253L26.2289 13.7834L26.4649 13.714L26.5933 14.1511ZM26.2289 13.7834L26.3261 13.6862L26.4649 13.714L26.2289 13.7834ZM27.7248 13.8458V14.3627H27.6797H27.6381H27.5929L27.5513 14.3593H27.5096H27.468L27.4229 14.3558L27.3812 14.3523H27.3361L27.2944 14.3489L27.2528 14.3454L27.2077 14.3419L27.166 14.3384L27.1244 14.335L27.0827 14.3315L27.0376 14.328L26.9959 14.3211L26.9543 14.3176L26.9092 14.3107L26.8675 14.3072L26.8259 14.3003L26.7807 14.2968L26.7391 14.2899L26.6974 14.2829L26.6558 14.276L26.6107 14.2691L26.569 14.2621L26.5274 14.2552L26.4857 14.2448L26.4441 14.2378L26.3989 14.2309L26.3573 14.2205L26.4649 13.714L26.5031 13.7209L26.5413 13.7313L26.5794 13.7383L26.6211 13.7452L26.6558 13.7521L26.6974 13.7591L26.7356 13.766L26.7773 13.7695L26.8155 13.7764L26.8536 13.7834L26.8953 13.7869L26.9335 13.7938L26.9716 13.7973L27.0133 13.8042L27.0515 13.8077L27.0931 13.8111L27.1313 13.8146L27.1695 13.8181L27.2111 13.8215L27.2493 13.825L27.291 13.8285L27.3291 13.832L27.3673 13.8354H27.409L27.4472 13.8389H27.4888L27.527 13.8424H27.5686H27.6068L27.645 13.8458H27.6867H27.7248ZM27.7248 14.106V13.8458V14.106ZM28.5544 32.7773L28.9188 33.1415L28.8286 32.7148L28.8598 32.7287L28.8945 32.7426L28.9258 32.753L28.9605 32.7634L28.9952 32.7738L29.0264 32.7842L29.0611 32.7946L29.0959 32.805L29.1306 32.812L29.1618 32.8224L29.1965 32.8293L29.2312 32.8397L29.2694 32.8467L29.3006 32.8536L29.3353 32.8605L29.3701 32.8675L29.4048 32.8709L29.4395 32.8779L29.4742 32.8848L29.5089 32.8883L29.5436 32.8918L29.5783 32.8987L29.613 32.9022L29.6512 32.9056L29.6859 32.9091H29.7206L29.7553 32.9126L29.79 32.916H29.8247H29.8595H29.8942H29.9323L29.9289 33.4364H29.8907H29.849L29.8074 33.433H29.7657L29.7241 33.4295L29.6824 33.426L29.6408 33.4226L29.6026 33.4191L29.561 33.4156L29.5193 33.4121L29.4811 33.4087L29.4395 33.4017L29.3978 33.3948L29.3596 33.3913L29.318 33.3844L29.2763 33.3775L29.2382 33.3705L29.1965 33.3601L29.1549 33.3532L29.1167 33.3428L29.0785 33.3358L29.0369 33.3254L28.9952 33.315L28.957 33.3046L28.9188 33.2907L28.8807 33.2803L28.839 33.2699L28.8008 33.256L28.7626 33.2421L28.721 33.2283L28.6828 33.2144L28.6446 33.2005L28.5544 32.7773ZM28.6446 33.2005L28.2698 33.0618L28.5544 32.7773L28.6446 33.2005ZM33.3026 28.7599L28.9188 33.1415L28.5544 32.7773L32.9382 28.3957L33.3616 28.4859L33.3026 28.7599ZM32.9382 28.3957L33.2228 28.1112L33.3616 28.4859L32.9382 28.3957ZM31.2235 33.2005L31.0396 32.7148L31.1923 32.6559L31.3381 32.5899L31.4769 32.5136L31.6123 32.4338L31.7407 32.3471L31.8657 32.2569L31.9871 32.1563L32.0982 32.0557L32.2093 31.9481L32.3099 31.8337L32.4071 31.7192L32.4974 31.5977L32.5807 31.4694L32.6605 31.341L32.7334 31.2092L32.7993 31.0739L32.8584 30.9351L32.9104 30.7929L32.9555 30.6472L32.9937 30.5015L33.0249 30.3558L33.0492 30.2031L33.0666 30.0539L33.077 29.9013L33.0805 29.7487L33.0735 29.5926L33.0631 29.4399L33.0423 29.2838L33.0111 29.1311L32.9764 28.975L32.9312 28.8224L32.8757 28.6697L33.3616 28.4859L33.4241 28.6663L33.4762 28.8432L33.5178 29.0236L33.5525 29.204L33.5768 29.3844L33.5907 29.5648L33.5977 29.7452L33.5942 29.9221L33.5838 30.099L33.563 30.276L33.5352 30.4494L33.497 30.6229L33.4519 30.7929L33.3998 30.9594L33.3373 31.1259L33.2714 31.2855L33.195 31.4451L33.1083 31.6012L33.018 31.7504L32.9208 31.8961L32.8132 32.0383L32.7022 32.1736L32.5841 32.3055L32.4557 32.4304L32.3238 32.5518L32.185 32.6628L32.0392 32.7703L31.8865 32.8709L31.7303 32.9646L31.5672 33.0513L31.3971 33.1311L31.2235 33.2005ZM29.9289 33.4364L29.9323 32.916H29.9671H30.0018H30.0365H30.0712L30.1094 32.9126L30.1441 32.9091H30.1788L30.2135 32.9056L30.2482 32.9022L30.2829 32.8987L30.3211 32.8952L30.3558 32.8883L30.3905 32.8848L30.4252 32.8779L30.4599 32.8744L30.4946 32.8675L30.5293 32.8605L30.5641 32.8536L30.5988 32.8467L30.6335 32.8397L30.6682 32.8328L30.7029 32.8224L30.7376 32.812L30.7723 32.805L30.8036 32.7946L30.8383 32.7842L30.873 32.7738L30.9077 32.7634L30.9424 32.753L30.9736 32.7426L31.0083 32.7287L31.0396 32.7148L31.2235 33.2005L31.1854 33.2144L31.1472 33.2283L31.1055 33.2421L31.0673 33.256L31.0292 33.2699L30.9875 33.2803L30.9493 33.2907L30.9077 33.3046L30.8695 33.315L30.8313 33.3254L30.7897 33.3358L30.748 33.3428L30.7098 33.3532L30.6682 33.3601L30.63 33.3705L30.5884 33.3775L30.5467 33.3844L30.5051 33.3913L30.4634 33.3983L30.4252 33.4017L30.3836 33.4087L30.3419 33.4121L30.3003 33.4156L30.2621 33.4226L30.2204 33.426L30.1788 33.4295H30.1371L30.0955 33.433H30.0538L30.0122 33.4364H29.9705H29.9289ZM23.9554 20.864L23.6222 21.263L23.5458 21.1936L23.4729 21.1242L23.4035 21.0479L23.3376 20.9716L23.2786 20.8918L23.223 20.8085L23.171 20.7253L23.1259 20.6385L23.0842 20.5518L23.046 20.4616L23.0113 20.3714L22.9835 20.2777L22.9592 20.1841L22.9384 20.0904L22.9211 19.9932L22.9107 19.8996L22.9037 19.8024V19.7053L22.9072 19.6082L22.9141 19.5145L22.928 19.4174L22.9454 19.3202L22.9662 19.2266L22.994 19.1329L23.0217 19.0392L23.0599 18.9456L23.0981 18.8554L23.1432 18.7686L23.1953 18.6819L23.2508 18.5952L23.3098 18.5119L23.3723 18.4321L23.7714 18.7652L23.7229 18.8241L23.6777 18.8866L23.6396 18.949L23.6014 19.0149L23.5667 19.0808L23.5389 19.1468L23.5111 19.2162L23.4868 19.2855L23.4695 19.3549L23.4521 19.4243L23.4382 19.4937L23.4313 19.5665L23.4244 19.6394L23.4209 19.7088L23.4244 19.7816L23.4278 19.8545L23.4348 19.9239L23.4486 19.9967L23.4625 20.0661L23.4799 20.1355L23.5007 20.2014L23.5285 20.2708L23.5562 20.3367L23.5875 20.4026L23.6222 20.4685L23.6604 20.5275L23.702 20.59L23.7437 20.6489L23.7923 20.7079L23.8443 20.76L23.8999 20.8154L23.9554 20.864ZM26.2254 20.8779L25.8575 21.2456L26.208 21.2595L26.1386 21.3185L26.0657 21.3705L25.9894 21.4191L25.913 21.4677L25.8367 21.5093L25.7568 21.5475L25.677 21.5822L25.5937 21.6134L25.5104 21.6411L25.4271 21.6654L25.3438 21.6862L25.2605 21.7036L25.1737 21.714L25.0869 21.7244L25.0002 21.7279L24.9169 21.7313H24.8301L24.7433 21.7244L24.6565 21.714L24.5732 21.7036L24.4899 21.6862L24.4032 21.6654L24.3199 21.6411L24.2366 21.6134L24.1567 21.5822L24.0769 21.5475L23.9971 21.5093L23.9172 21.4677L23.8409 21.4226L23.768 21.374L23.6951 21.3185L23.6222 21.263L23.9554 20.864L24.0075 20.9091L24.063 20.9473L24.1185 20.9855L24.1741 21.0167L24.2331 21.0479L24.2921 21.0791L24.3511 21.1034L24.4136 21.1277L24.4726 21.1485L24.5351 21.1658L24.5975 21.1797L24.66 21.1901L24.726 21.2005L24.7884 21.2075L24.8509 21.2109L24.9169 21.2144L24.9793 21.2109L25.0453 21.2075L25.1078 21.2005L25.1702 21.1901L25.2327 21.1797L25.2952 21.1658L25.3577 21.145L25.4201 21.1277L25.4791 21.1034L25.5382 21.0756L25.5972 21.0479L25.6562 21.0167L25.7117 20.982L25.7672 20.9473L25.8228 20.9057L25.8748 20.864L26.2254 20.8779ZM25.8748 20.864L26.0553 20.7114L26.2254 20.8779L25.8748 20.864ZM32.1572 27.5457L25.8575 21.2456L26.2254 20.8779L32.5217 27.1815H32.5251L32.1572 27.5457ZM32.5217 27.1815H32.5251H32.5217ZM32.716 27.7608L32.3516 27.3931L32.3377 27.7435L32.3273 27.7365V27.733L32.3204 27.7261L32.3099 27.7157L32.3065 27.7088H32.303L32.2961 27.6984L32.2926 27.6949L32.2856 27.6879L32.2787 27.6775L32.2752 27.6741L32.2683 27.6671L32.2614 27.6602L32.2579 27.6533L32.2544 27.6498L32.2509 27.6463L32.2371 27.6324L32.2336 27.6255L32.2232 27.6151L32.2162 27.6082L32.2128 27.6047L32.2093 27.5978L32.2023 27.5908L32.1989 27.5873L32.1919 27.5839L32.1815 27.5735L32.178 27.57L32.1711 27.5631L32.1676 27.5561L32.1642 27.5527L32.1572 27.5457L32.5251 27.1815L32.5286 27.1849L32.539 27.1953L32.546 27.2023L32.5529 27.2092L32.5598 27.2196L32.5633 27.2231L32.5703 27.2266L32.5807 27.237L32.5841 27.2439L32.5911 27.2508L32.6015 27.2612L32.6084 27.2682L32.6119 27.2717L32.6223 27.2855L32.6293 27.2925L32.6362 27.2994L32.6466 27.3098L32.6536 27.3168L32.657 27.3237L32.664 27.3306L32.6709 27.341L32.6744 27.3445L32.6813 27.3514L32.6917 27.3619L32.6952 27.3653L32.7022 27.3757L32.7091 27.3861H32.7126L32.716 27.3931L32.7299 27.4069L32.7334 27.4104L32.716 27.7608ZM32.7334 27.4104L32.8861 27.5908L32.716 27.7608L32.7334 27.4104ZM27.5513 32.191L32.3516 27.3931L32.716 27.7608L27.9192 32.5553L27.5686 32.5726L27.5513 32.191ZM27.9192 32.5553L27.7491 32.7252L27.5686 32.5726L27.9192 32.5553ZM27.3361 32.361L27.704 31.9967L27.711 32.0036L27.7179 32.0071L27.7214 32.0141H27.7248L27.7353 32.0245L27.7387 32.0314L27.7422 32.0349L27.7491 32.0418L27.7596 32.0487L27.7665 32.0557L27.77 32.0592L27.7804 32.0696L27.7873 32.073L27.7943 32.08L27.8047 32.0904L27.8116 32.0973L27.822 32.1043L27.8255 32.1077L27.8324 32.1147L27.8359 32.1181L27.8463 32.1251L27.8498 32.132H27.8533L27.8671 32.1424L27.8706 32.1494H27.8741L27.8845 32.1598L27.8914 32.1667H27.8949L27.9019 32.1771L27.5686 32.5726L27.5652 32.5691L27.5513 32.5553L27.5444 32.5518L27.5305 32.5379L27.5235 32.5344V32.531L27.5096 32.5206L27.5027 32.5136H27.4992L27.4888 32.5032L27.4819 32.4963L27.4715 32.4893L27.468 32.4859L27.461 32.4789L27.4506 32.4685L27.4472 32.465L27.4402 32.4581L27.4333 32.4512L27.4298 32.4477L27.4194 32.4408L27.4055 32.4269L27.3986 32.4234L27.3951 32.4199L27.3882 32.413L27.3812 32.4026L27.3743 32.3957L27.3708 32.3922L27.3604 32.3853L27.35 32.3748L27.343 32.3679L27.3361 32.361ZM21.4008 25.6966L27.704 31.9967L27.3361 32.361L21.0329 26.0609L21.019 25.7105L21.4008 25.6966ZM21.0329 26.0609L20.8663 25.8944L21.019 25.7105L21.0329 26.0609ZM20.835 23.6116L21.1682 23.2127L21.2446 23.2821L21.3175 23.3549L21.3869 23.4278L21.4529 23.5041L21.5119 23.5839L21.5674 23.6671L21.6195 23.7504L21.6646 23.8371L21.7097 23.9273L21.7444 24.0141L21.7791 24.1077L21.8069 24.1979L21.8312 24.2916L21.852 24.3853L21.8659 24.4824L21.8798 24.5761L21.8833 24.6732L21.8867 24.7704L21.8833 24.8675L21.8763 24.9646L21.8624 25.0583L21.8451 25.1554L21.8243 25.2491L21.7965 25.3428L21.7652 25.4364L21.7305 25.5301L21.6889 25.6203L21.6438 25.707L21.5952 25.7972L21.5396 25.8805L21.4806 25.9638L21.4147 26.0435L21.019 25.7105L21.0676 25.6515L21.1127 25.5891L21.1509 25.5266L21.1891 25.4607L21.2238 25.3948L21.2516 25.3289L21.2793 25.2595L21.3036 25.1936L21.321 25.1207L21.3383 25.0514L21.3522 24.982L21.3592 24.9091L21.3661 24.8397V24.7669V24.694L21.3626 24.6212L21.3557 24.5518L21.3418 24.4824L21.3279 24.4096L21.3106 24.3402L21.2897 24.2743L21.262 24.2049L21.2342 24.139L21.203 24.073L21.1682 24.0106L21.1301 23.9482L21.0919 23.8857L21.0468 23.8267L20.9982 23.7712L20.9461 23.7157L20.894 23.6602L20.835 23.6116ZM18.565 23.5978L18.933 23.23L18.5824 23.2162L18.6518 23.1606L18.7247 23.1051L18.8011 23.0566L18.8774 23.0115L18.9538 22.9664L19.0336 22.9282L19.1135 22.8935L19.1968 22.8623L19.2801 22.8345L19.3634 22.8102L19.4467 22.7894L19.53 22.7721L19.6167 22.7617L19.7035 22.7513L19.7868 22.7478L19.8736 22.7443L19.9604 22.7478L20.0471 22.7513L20.1304 22.7617L20.2172 22.7721L20.3005 22.7894L20.3873 22.8102L20.4706 22.8345L20.5539 22.8623L20.6337 22.8935L20.7136 22.9282L20.7934 22.9664L20.8732 23.008L20.9496 23.0531L21.0225 23.1051L21.0954 23.1572L21.1682 23.2127L20.835 23.6116L20.783 23.57L20.7274 23.5284L20.6719 23.4937L20.6164 23.459L20.5574 23.4278L20.4984 23.3965L20.4394 23.3723L20.3803 23.348L20.3179 23.3306L20.2554 23.3098L20.1929 23.2959L20.1304 23.2855L20.068 23.2751L20.002 23.2682L19.9395 23.2647L19.8736 23.2613L19.8111 23.2647L19.7486 23.2682L19.6827 23.2751L19.6202 23.2855L19.5577 23.2959L19.4953 23.3133L19.4328 23.3306L19.3703 23.3514L19.3113 23.3723L19.2488 23.4L19.1933 23.4278L19.1343 23.459L19.0787 23.4937L19.0232 23.5284L18.9677 23.57L18.9156 23.6116L18.565 23.5978ZM18.9156 23.6116L18.7317 23.7643L18.565 23.5978L18.9156 23.6116ZM18.034 22.3315L18.933 23.23L18.565 23.5978L17.6661 22.6992V22.3315H18.034ZM17.6661 22.6992L17.4856 22.5154L17.6661 22.3315V22.6992ZM22.8586 17.884L18.034 22.6992L17.6661 22.3315L22.4907 17.5197H22.8586V17.884ZM22.4907 17.5197L22.6746 17.3358L22.8586 17.5197H22.4907ZM23.3896 18.7825L22.4907 17.8874L22.8586 17.5197L23.7541 18.4148L23.7714 18.7652L23.3896 18.7825ZM23.7541 18.4148L23.9242 18.5813L23.7714 18.7652L23.7541 18.4148ZM12.9248 25.4954L25.6562 12.7738L26.0206 13.1381L13.2892 25.8632L12.9248 25.4954ZM13.2094 26.1476L12.7061 26.276L12.7026 26.2482L12.6957 26.2205L12.6922 26.1962L12.6888 26.1685L12.6853 26.1407V26.1164L12.6818 26.0921V26.0644L12.6853 26.0366V26.0089L12.6888 25.9846L12.6922 25.9568L12.6957 25.9325L12.6992 25.9048L12.7061 25.8805L12.7131 25.8562L12.72 25.8319L12.7269 25.8076L12.7374 25.7834L12.7478 25.7556L12.7582 25.7348L12.7686 25.7105L12.779 25.6862L12.7929 25.6654L12.8068 25.6411L12.8207 25.6203L12.838 25.596L12.8554 25.5752L12.8693 25.5579L12.8866 25.5371L12.9074 25.5128L12.9248 25.4954L13.2892 25.8632L13.2823 25.8701L13.2788 25.8736L13.2719 25.884L13.2615 25.8944L13.258 25.9013L13.251 25.9083L13.2476 25.9152L13.2406 25.9221L13.2372 25.9325L13.2337 25.9395L13.2302 25.9499L13.2233 25.9603L13.2198 25.9672L13.2163 25.9776V25.9846L13.2129 25.995L13.2094 26.0054L13.2059 26.0123V26.0227L13.2025 26.0331V26.0435V26.0505V26.0609V26.0713V26.0783V26.0886V26.0991V26.1095L13.2059 26.1199V26.1303L13.2094 26.1372V26.1476ZM12.7061 26.276L12.72 26.328L12.7061 26.276ZM8.94016 33.3289L8.8152 32.8259L9.08247 32.7495L9.34279 32.6628L9.59269 32.5622L9.83913 32.4512L10.0786 32.3297L10.3077 32.1945L10.5298 32.0522L10.7416 31.8996L10.9464 31.7365L11.1442 31.5631L11.3282 31.3827L11.5086 31.1919L11.6753 30.9941L11.8314 30.7894L11.9807 30.5743L12.1195 30.3558L12.2445 30.1303L12.359 29.9013L12.4666 29.6619L12.5603 29.4225L12.6402 29.1762L12.7096 28.923L12.7686 28.6697L12.8137 28.413L12.8484 28.1528L12.8693 27.8892L12.8762 27.6221L12.8693 27.3549L12.8519 27.0878L12.8172 26.8172L12.7686 26.5466L12.7061 26.276L13.2094 26.1476L13.2788 26.4425L13.3309 26.7409L13.3656 27.0358L13.3864 27.3306L13.3934 27.6221L13.3864 27.9135L13.3621 28.2049L13.3274 28.4894L13.2788 28.7738L13.2129 29.0514L13.1365 29.3254L13.0463 29.596L12.9456 29.8631L12.8311 30.1199L12.7026 30.3731L12.5638 30.6229L12.4146 30.8623L12.2514 31.0947L12.0779 31.3202L11.8939 31.5353L11.6995 31.7434L11.4948 31.9412L11.2796 32.132L11.0574 32.3124L10.8214 32.4789L10.5784 32.6385L10.3251 32.7842L10.0647 32.9195L9.79748 33.041L9.5198 33.1485L9.23519 33.2456L8.94016 33.3289ZM1.7588 29.0618L2.25861 28.9334L2.33497 29.2005L2.42175 29.4607L2.5224 29.714L2.63347 29.9603L2.75495 30.1962L2.89033 30.4286L3.03262 30.6507L3.18882 30.8623L3.35195 31.067L3.52203 31.2612L3.70599 31.4486L3.89342 31.6255L4.09127 31.7955L4.29952 31.9516L4.51125 32.1008L4.72992 32.2361L4.95552 32.3645L5.18808 32.4789L5.4241 32.583L5.6636 32.6767L5.9135 32.7599L6.16341 32.8293L6.41678 32.8883L6.6771 32.9334L6.93742 32.9681L7.20122 32.9854L7.46501 32.9924L7.73227 32.9889L8.003 32.9681L8.27373 32.9369L8.541 32.8883L8.8152 32.8259L8.94016 33.3289L8.64513 33.3948L8.35009 33.4468L8.0516 33.485L7.75657 33.5058L7.46501 33.5128L7.17345 33.5058L6.88536 33.4815L6.59728 33.4468L6.31613 33.3948L6.03499 33.3324L5.76078 33.256L5.49005 33.1658L5.22626 33.0618L4.96594 32.9473L4.71256 32.8224L4.46612 32.6836L4.22663 32.531L3.99408 32.3714L3.76847 32.1979L3.5498 32.0141L3.34154 31.8198L3.1437 31.6151L2.9528 31.4L2.77578 31.1745L2.60571 30.9421L2.44951 30.6992L2.30026 30.446L2.16837 30.1858L2.04688 29.9152L1.93582 29.6377L1.83863 29.3532L1.7588 29.0618ZM6.02458 21.8805L6.153 22.3835L5.88573 22.4599L5.62541 22.5466L5.37204 22.6472L5.12907 22.7582L4.88958 22.8796L4.66049 23.0149L4.43836 23.1572L4.22316 23.3098L4.01838 23.4729L3.824 23.6463L3.63657 23.8267L3.45955 24.0175L3.29294 24.2153L3.13328 24.42L2.98751 24.6316L2.84867 24.8536L2.72372 25.0791L2.60571 25.3081L2.50157 25.5475L2.40786 25.7868L2.32456 26.0331L2.25514 26.2864L2.1996 26.5396L2.15102 26.7964L2.11978 27.0566L2.09895 27.3202L2.09201 27.5873L2.09895 27.8545L2.1163 28.1216L2.15102 28.3922L2.19614 28.6628L2.25861 28.9334L1.7588 29.0618L1.68938 28.7669L1.63731 28.4685L1.6026 28.1736L1.57831 27.8788L1.57484 27.5873L1.58178 27.2959L1.6026 27.0045L1.64079 26.72L1.68938 26.4356L1.75186 26.158L1.83169 25.884L1.91846 25.6134L2.02259 25.3462L2.13713 25.0895L2.26555 24.8363L2.40439 24.5865L2.55364 24.3471L2.71678 24.1147L2.89033 23.8892L3.07428 23.6741L3.26866 23.4659L3.47344 23.2682L3.68864 23.0774L3.91077 22.897L4.1468 22.7305L4.38976 22.5709L4.63967 22.4252L4.90346 22.2899L5.17072 22.1684L5.4484 22.0609L5.73301 21.9638L6.02458 21.8805ZM8.94016 21.8805L8.8152 22.3835L8.7319 22.3627L8.6486 22.3454L8.56877 22.3246L8.48547 22.3107L8.40216 22.2968L8.31886 22.2829L8.23556 22.269L8.15225 22.2586L8.06895 22.2482L7.98565 22.2413L7.90234 22.2344L7.81904 22.2274L7.73574 22.2239L7.64897 22.2205L7.56914 22.217H7.48236H7.39906L7.31576 22.2205L7.23245 22.2239L7.14916 22.2274L7.06586 22.2344L6.98255 22.2413L6.89925 22.2482L6.81595 22.2586L6.73264 22.269L6.64934 22.2829L6.56604 22.2968L6.48273 22.3107L6.39943 22.3246L6.3196 22.3454L6.2363 22.3627L6.153 22.3835L6.02458 21.8805L6.11481 21.8597L6.20506 21.8389L6.29531 21.8181L6.38555 21.8007L6.47927 21.7834L6.56951 21.7695L6.65975 21.7556L6.75 21.7452L6.84371 21.7348L6.93396 21.7244L7.0242 21.7175L7.11792 21.7105L7.20816 21.707L7.2984 21.7001H7.39212H7.48236H7.57608H7.66632L7.76004 21.707L7.85028 21.7105L7.944 21.7175L8.03424 21.7244L8.12449 21.7348L8.2182 21.7452L8.30845 21.7556L8.39869 21.7695L8.48893 21.7834L8.57918 21.8007L8.66943 21.8181L8.76314 21.8389L8.85338 21.8597L8.94016 21.8805ZM8.8152 22.3835L8.80132 22.3801L8.8152 22.3835ZM9.22824 21.8007L9.59269 22.1684L9.57533 22.1858L9.55451 22.2031L9.53368 22.2205L9.51286 22.2378L9.49203 22.2552L9.47121 22.269L9.45039 22.2829L9.42609 22.2968L9.40179 22.3107L9.37749 22.3211L9.35666 22.3315L9.33237 22.3419L9.30808 22.3523L9.2803 22.3627L9.25601 22.3697L9.23519 22.3766L9.20742 22.3835L9.18312 22.3905L9.15883 22.394L9.12759 22.4009H9.10676L9.07899 22.4044L9.05123 22.4078H9.02693H8.99916H8.97487L8.9471 22.4044L8.91933 22.4009H8.89503L8.86727 22.394L8.8395 22.3905L8.8152 22.3835L8.94016 21.8805L8.95057 21.884H8.96098L8.96792 21.8874H8.97833H8.98874H8.99916L9.00957 21.8909H9.01652L9.02693 21.8874H9.03734H9.04428H9.05817L9.06511 21.884H9.07552L9.08593 21.8805L9.09288 21.877L9.10329 21.8736L9.1137 21.8701H9.12064L9.13105 21.8666L9.138 21.8632L9.14842 21.8562L9.15883 21.8528L9.16577 21.8493L9.1727 21.8423L9.18312 21.8389L9.19007 21.8319L9.197 21.825L9.20394 21.8215L9.21436 21.8146L9.2213 21.8077L9.22824 21.8007ZM22.3241 9.4434L9.59269 22.1684L9.22824 21.8007L21.9562 9.07914L22.3241 9.4434ZM22.036 8.79119L22.5393 8.66283V8.6663L22.5462 8.69059L22.5497 8.71833L22.5532 8.74609L22.5566 8.77037L22.5601 8.79813V8.82242L22.5636 8.85016V8.87445V8.90221L22.5601 8.92997L22.5566 8.9577L22.5532 8.98199L22.5497 9.00628L22.5462 9.03404L22.5393 9.05832L22.5323 9.08261L22.5254 9.10688L22.5184 9.13464L22.508 9.15892L22.5011 9.17974L22.4907 9.20403L22.4768 9.22831L22.4629 9.25607L22.4525 9.27689L22.4386 9.2977L22.4247 9.32199L22.4074 9.3428L22.3935 9.36362L22.3761 9.38788L22.3588 9.40524L22.3414 9.42259L22.3241 9.4434L21.9562 9.07914L21.9631 9.07219L21.97 9.06525L21.977 9.05485L21.9839 9.04791L21.9874 9.04096L21.9943 9.03404L21.9978 9.02709L22.0047 9.01322L22.0082 9.00628L22.0117 8.99933L22.0152 8.99241L22.0221 8.98199L22.0256 8.97159L22.029 8.96465V8.95423L22.0325 8.94383L22.036 8.93342L22.0395 8.92649V8.91607L22.0429 8.90568V8.89526V8.88834L22.0464 8.87792V8.87097V8.86058L22.0429 8.85016V8.83976V8.82934V8.81895L22.0395 8.812V8.80161L22.036 8.79119ZM22.5393 8.66283V8.6663L22.5427 8.68364L22.5393 8.66283ZM26.2497 1.68626L26.3781 2.18583L26.1143 2.26214L25.8575 2.34887L25.6076 2.44602L25.3646 2.55704L25.1286 2.67845L24.903 2.81028L24.6843 2.95251L24.4726 3.10515L24.2713 3.26822L24.0769 3.43821L23.8929 3.61861L23.7194 3.80594L23.5528 4.00022L23.3966 4.20491L23.2508 4.41305L23.1154 4.63161L22.9905 4.85365L22.8759 5.08261L22.7718 5.31504L22.6816 5.55441L22.6017 5.79726L22.5323 6.04706L22.4733 6.29683L22.4282 6.55355L22.397 6.81026L22.3761 7.07046L22.3692 7.33412L22.3761 7.59778L22.397 7.86144L22.4282 8.12858L22.4768 8.39569L22.5393 8.66283L22.036 8.79119L21.97 8.49977L21.918 8.20489L21.8798 7.91347L21.859 7.62207L21.852 7.33412L21.859 7.04617L21.8798 6.75824L21.918 6.47723L21.9666 6.19623L22.029 5.91868L22.1054 5.64809L22.1922 5.38095L22.2928 5.11729L22.4074 4.86057L22.5323 4.6108L22.6712 4.36795L22.8169 4.12857L22.9766 3.89962L23.1502 3.67411L23.3306 3.46249L23.5215 3.25433L23.7263 3.06005L23.9381 2.86925L24.1602 2.69232L24.3893 2.5258L24.6322 2.36968L24.8787 2.22398L25.139 2.09215L25.4028 1.97074L25.677 1.86319L25.9616 1.76605L26.2497 1.68626ZM28.2281 1.95685L27.8602 1.58911L28.0268 2.02971L27.9747 2.02624H27.9261L27.8706 2.02276H27.822H27.77L27.7179 2.01929H27.6658L27.6138 2.02276H27.5617H27.5062L27.4576 2.02624L27.4055 2.02971L27.35 2.03318L27.3014 2.03665L27.2493 2.04011L27.1973 2.04358L27.1452 2.05052L27.0931 2.054L27.0411 2.06092L26.989 2.06787L26.9404 2.07481L26.8883 2.08173L26.8363 2.09215L26.7842 2.0991L26.7321 2.10949L26.6836 2.11991L26.6315 2.12684L26.5794 2.14073L26.5308 2.15112L26.4788 2.16154L26.4267 2.17541L26.3781 2.18583L26.2497 1.68626L26.3052 1.67237L26.3608 1.6585L26.4163 1.64463L26.4718 1.63421L26.5274 1.62035L26.5829 1.60993L26.6384 1.59953L26.6974 1.58911L26.753 1.57872L26.8085 1.57177L26.864 1.56135L26.9231 1.55443L26.9786 1.54748L27.0341 1.54054L27.0931 1.53361L27.1487 1.53014L27.2042 1.5232L27.2632 1.51972L27.3187 1.51627L27.3743 1.5128L27.4333 1.50933L27.4888 1.50586H27.5444L27.6034 1.50238H27.6589H27.7179H27.7734H27.8324L27.888 1.50586L27.947 1.50933H28.0025L28.0615 1.5128L28.2281 1.95685ZM28.0615 1.5128L28.6342 1.55096L28.2281 1.95685L28.0615 1.5128ZM24.8995 4.54836L27.8602 1.58911L28.2281 1.95685L25.2674 4.91609L24.8995 4.54836ZM25.1945 5.22483L24.7017 5.3879L24.6947 5.36014L24.6843 5.32893L24.6808 5.30464L24.6739 5.28035L24.6704 5.24912L24.6635 5.21791V5.19015L24.66 5.16239V5.13465V5.11037V5.07913L24.6635 5.05137L24.667 5.02364L24.6704 4.99588L24.6774 4.96812L24.6808 4.94038L24.6878 4.91262L24.6982 4.88486L24.7051 4.86057L24.7155 4.83629L24.726 4.80507L24.7364 4.78079L24.7502 4.75997L24.7641 4.73221L24.778 4.70793L24.7919 4.68019L24.8093 4.65937L24.8231 4.63856L24.844 4.61427L24.8613 4.58998L24.8787 4.56917L24.8995 4.54836L25.2674 4.91609L25.2605 4.92302L25.2535 4.93343L25.2466 4.94038L25.2397 4.9473L25.2327 4.95772L25.2258 4.96464L25.2223 4.97506L25.2154 4.98201L25.2119 4.98893L25.2084 5.00282L25.2015 5.01322L25.198 5.02016L25.1945 5.03056L25.1911 5.04098L25.1876 5.05137V5.06179L25.1841 5.06874V5.07913L25.1807 5.08955V5.09995V5.11037L25.1772 5.12076V5.13118V5.14158L25.1807 5.15199V5.16239V5.17281L25.1841 5.17975V5.19362L25.1876 5.20749L25.1911 5.21444L25.1945 5.22483ZM25.8228 8.75303L24.7017 5.3879L25.1945 5.22483L26.3156 8.58997L25.8228 8.75303ZM26.5065 8.78077L26.3434 9.27341L26.3191 9.263L26.2983 9.25607L26.2775 9.24913L26.2532 9.23526L26.2323 9.22484L26.2115 9.21442L26.1907 9.20403L26.1733 9.19361L26.149 9.17974L26.1317 9.16587L26.1109 9.15198L26.09 9.13464L26.0727 9.12077L26.0588 9.10688L26.0414 9.09301L26.0241 9.07567L26.0033 9.05485L25.9894 9.04096L25.9755 9.02362L25.9581 9.00281L25.9443 8.98546L25.9338 8.96812L25.92 8.94731L25.9061 8.92649L25.8957 8.90568L25.8818 8.88834L25.8714 8.86405L25.861 8.84324L25.8505 8.81895L25.8401 8.80161L25.8332 8.77732L25.8228 8.75303L26.3156 8.58997L26.3191 8.59691L26.3226 8.60731L26.3261 8.61773L26.3295 8.62467L26.333 8.6316L26.3365 8.63854L26.3399 8.64549L26.3469 8.65588L26.3504 8.65936L26.3538 8.6663L26.3608 8.6767L26.3677 8.68364L26.3712 8.68712L26.3781 8.69404L26.3851 8.70446L26.3885 8.70793L26.3955 8.7114L26.4024 8.71833L26.4094 8.72527L26.4163 8.73222L26.4232 8.73569L26.4302 8.74261L26.4371 8.74609L26.4406 8.74956L26.451 8.75651L26.458 8.75996L26.4684 8.76343L26.4753 8.7669L26.4788 8.77037L26.4892 8.77385L26.4996 8.77732L26.5065 8.78077ZM29.7102 10.394L26.3434 9.27341L26.5065 8.78077L29.8733 9.90134L29.7102 10.394ZM29.7102 10.394L29.613 10.3627L29.7102 10.394ZM30.1823 9.83195L30.5502 10.1962L30.5293 10.217L30.5085 10.2344L30.4877 10.2552L30.4634 10.2725L30.4391 10.2899L30.4148 10.3038L30.394 10.3176L30.3662 10.335L30.3419 10.3454L30.3176 10.3593L30.2899 10.3731L30.2656 10.3836L30.2413 10.3905L30.2135 10.4009L30.1857 10.4078L30.158 10.4148L30.1337 10.4217L30.1024 10.4252L30.0747 10.4286L30.0469 10.4321L30.0191 10.4356H29.9948H29.9671H29.9358H29.9046L29.8768 10.4321L29.8525 10.4286L29.8247 10.4217L29.7935 10.4182L29.7657 10.4113L29.738 10.4044L29.7102 10.394L29.8733 9.90134L29.8838 9.90481L29.8976 9.90826L29.9081 9.91174L29.915 9.91521H29.9254H29.9393L29.9497 9.91868H29.9566H29.9671H29.9775H29.9914H29.9983L30.0087 9.91521H30.0191L30.0295 9.91174L30.04 9.90826H30.0504L30.0608 9.90481L30.0677 9.90134L30.0816 9.89787L30.0885 9.89439L30.099 9.89092L30.1059 9.884L30.1163 9.88052L30.1267 9.87705L30.1337 9.87011L30.1441 9.86318L30.1545 9.85624L30.1614 9.85277L30.1684 9.84582L30.1753 9.8389L30.1823 9.83195ZM33.5109 7.23699L30.5502 10.1962L30.1823 9.83195L33.143 6.86926L33.5872 7.03577L33.5109 7.23699ZM33.143 6.86926L33.5491 6.46682L33.5872 7.03577L33.143 6.86926ZM33.5977 7.37227H33.077V7.36188V7.35146V7.34454V7.33759V7.32719V7.3133V7.30983V7.29943V7.28209V7.27862V7.2682V7.25781V7.25433V7.24046V7.23005V7.2231V7.21618V7.20576L33.0735 7.19536V7.18494V7.17455V7.16413V7.15373V7.14679V7.13637V7.12945L33.0701 7.11903V7.10516V7.10169V7.09127V7.08087V7.07046L33.5872 7.03577V7.04964V7.05659V7.067L33.5907 7.08435V7.08782V7.09821V7.11208V7.1225V7.1329V7.14332V7.15373L33.5942 7.16413V7.17455V7.18494V7.19189V7.20229V7.21963V7.23005V7.23352V7.24739V7.25781L33.5977 7.2682V7.28209V7.28902V7.29943V7.3133V7.31678V7.32719V7.34454V7.35146V7.36188V7.37227ZM27.7838 13.2422L27.7804 12.7218L28.0546 12.7149L28.3253 12.694L28.5926 12.6594L28.8529 12.6108L29.1132 12.5483L29.3631 12.4755L29.6096 12.3922L29.8525 12.2951L30.0885 12.1875L30.3142 12.0696L30.5363 11.9378L30.755 11.799L30.9632 11.6498L31.1611 11.4902L31.3554 11.3237L31.5394 11.1468L31.7129 10.9594L31.8795 10.7652L32.0392 10.5639L32.185 10.3523L32.3204 10.1372L32.4488 9.91521L32.5668 9.68278L32.6709 9.44687L32.7646 9.20403L32.8479 8.9577L32.9174 8.70446L32.9764 8.44774L33.0215 8.18408L33.0527 7.92041L33.0735 7.64636L33.077 7.37227H33.5977L33.5907 7.67064L33.5699 7.96899L33.5352 8.26039L33.4831 8.54834L33.4206 8.83282L33.3443 9.11035L33.254 9.38096L33.1499 9.64807L33.0354 9.90481L32.9069 10.1581L32.7681 10.4044L32.6154 10.6403L32.4557 10.8727L32.2822 11.0913L32.0982 11.3064L31.9073 11.5111L31.706 11.7053L31.4943 11.8892L31.2756 12.0626L31.0465 12.2257L30.8105 12.3784L30.5675 12.5206L30.3142 12.6524L30.0573 12.7704L29.79 12.8745L29.5193 12.9681L29.2416 13.0514L28.9605 13.1173L28.6724 13.1693L28.3808 13.2075L28.0858 13.2318L27.7838 13.2422ZM26.3052 13.0583L26.4302 12.5553H26.4337L26.4753 12.5657L26.517 12.5761L26.5586 12.5865L26.6003 12.5969L26.6384 12.6073L26.6836 12.6143L26.7252 12.6212L26.7634 12.6316L26.8085 12.6385L26.8502 12.6455L26.8918 12.6524L26.9335 12.6594L26.9751 12.6663L27.0168 12.6732L27.0619 12.6767L27.1035 12.6836L27.1452 12.6871L27.1868 12.694L27.2285 12.6975L27.2701 12.701L27.3118 12.7045L27.3569 12.7079L27.3986 12.7114L27.4402 12.7149L27.4819 12.7183H27.5235H27.5686L27.6103 12.7218H27.652H27.6971H27.7387H27.7804L27.7838 13.2422H27.7353H27.6901L27.645 13.2387H27.5964H27.5513L27.5027 13.2352H27.4576L27.409 13.2318L27.3639 13.2283L27.3153 13.2248L27.2701 13.2214L27.225 13.2179L27.1799 13.2144L27.1313 13.2075L27.0827 13.204L27.0376 13.1971L26.9925 13.1901L26.9474 13.1867L26.8988 13.1797L26.8536 13.1728L26.8085 13.1659L26.7599 13.1555L26.7148 13.1485L26.6697 13.1381L26.6245 13.1312L26.576 13.1208L26.5308 13.1138L26.4857 13.1034L26.4406 13.0895L26.3955 13.0826L26.3504 13.0687L26.3052 13.0583ZM26.4302 12.5553H26.4337H26.4302ZM25.8367 12.6975V13.2144L25.6527 12.7704L25.6735 12.753L25.6943 12.7357L25.7117 12.7183L25.7325 12.701L25.7568 12.6836L25.7776 12.6698L25.7985 12.6559L25.8228 12.642L25.8436 12.6316L25.8679 12.6177L25.8922 12.6073L25.913 12.5969L25.9408 12.5865L25.9651 12.5761L25.9894 12.5692L26.0137 12.5622L26.038 12.5553L26.0657 12.5483L26.09 12.5449L26.1178 12.5414L26.1421 12.5379L26.1664 12.5345H26.1942L26.2219 12.531H26.2462L26.274 12.5345H26.2983L26.3261 12.5379L26.3538 12.5414L26.3781 12.5449L26.4059 12.5518L26.4302 12.5553L26.3052 13.0583H26.2948L26.2879 13.0548H26.2775L26.267 13.0514H26.2566H26.2497H26.2393H26.2289H26.2185H26.208H26.1976L26.1872 13.0548H26.1803H26.1733L26.1629 13.0583L26.1525 13.0618L26.1421 13.0653H26.1352L26.1247 13.0687L26.1178 13.0722L26.1039 13.0791L26.097 13.0826L26.09 13.0861L26.0796 13.0895L26.0727 13.0965L26.0657 13.0999L26.0553 13.1069L26.0484 13.1104L26.0449 13.1173L26.031 13.1242L26.0241 13.1312L26.0206 13.1381L25.8367 12.6975ZM25.8367 13.2144H25.2084L25.6527 12.7704L25.8367 13.2144ZM25.8401 13.2144H25.8367V12.6975H25.8401L26.097 12.9542L25.8401 13.2144ZM25.8401 12.6975H26.097V12.9542L25.8401 12.6975ZM25.5798 12.9542H26.097L26.0206 13.1381L25.5798 12.9542ZM26.097 12.9542V13.0618L26.0206 13.1381L26.097 12.9542Z" fill="currentColor"/>
<path d="M29.8075 28.8536L29.0126 29.648L23.4001 24.0384L24.195 23.2439L29.8075 28.8536Z" fill="currentColor"/>
<path d="M28.8286 29.4643L29.6235 28.6698L29.9914 29.0375L29.1965 29.8285H28.8286V29.4643ZM29.1965 29.8285L29.0126 30.0124L28.8286 29.8285H29.1965ZM23.5841 23.8545L29.1965 29.4643L28.8286 29.8285L23.2161 24.2188V23.8545H23.5841ZM23.2161 24.2188L23.0356 24.0384L23.2161 23.8545V24.2188ZM24.3789 23.4278L23.5841 24.2188L23.2161 23.8545L24.011 23.0601H24.3789V23.4278ZM24.011 23.0601L24.1949 22.8762L24.3789 23.0601H24.011ZM29.6235 29.0375L24.011 23.4278L24.3789 23.0601L29.9914 28.6698V29.0375H29.6235ZM29.9914 28.6698L30.1719 28.8537L29.9914 29.0375V28.6698Z" fill="currentColor"/>
</svg>
