<svg viewBox="0 0 22 20" fill="none" xmlns="http://www.w3.org/2000/svg">
<path fill-rule="evenodd" clip-rule="evenodd" d="M3 2C2.73478 2 2.48043 2.10536 2.29289 2.29289C2.10536 2.48043 2 2.73478 2 3V13C2 13.2652 2.10536 13.5196 2.29289 13.7071C2.48043 13.8946 2.73478 14 3 14H4C4.55228 14 5 14.4477 5 15C5 15.5523 4.55228 16 4 16H3C2.20435 16 1.44129 15.6839 0.87868 15.1213C0.31607 14.5587 0 13.7956 0 13V3C0 2.20435 0.31607 1.44129 0.87868 0.87868C1.44129 0.31607 2.20435 0 3 0H19C19.7957 0 20.5587 0.31607 21.1213 0.87868C21.6839 1.44129 22 2.20435 22 3V13C22 13.7957 21.6839 14.5587 21.1213 15.1213C20.5587 15.6839 19.7957 16 19 16H18C17.4477 16 17 15.5523 17 15C17 14.4477 17.4477 14 18 14H19C19.2652 14 19.5196 13.8946 19.7071 13.7071C19.8946 13.5196 20 13.2652 20 13V3C20 2.73478 19.8946 2.48043 19.7071 2.29289C19.5196 2.10536 19.2652 2 19 2H3Z" fill="currentColor"/>
<path fill-rule="evenodd" clip-rule="evenodd" d="M11 12C11.2968 12 11.5782 12.1318 11.7682 12.3598L16.7682 18.3598C17.0166 18.6579 17.0702 19.0728 16.9056 19.4242C16.741 19.7755 16.388 20 16 20H6.00001C5.61199 20 5.259 19.7755 5.09442 19.4242C4.92984 19.0728 4.98339 18.6579 5.23179 18.3598L10.2318 12.3598C10.4218 12.1318 10.7032 12 11 12ZM8.13505 18H13.865L11 14.562L8.13505 18Z" fill="currentColor"/>
</svg>
