<svg viewBox="0 0 24 14" fill="none" xmlns="http://www.w3.org/2000/svg">
<path fill-rule="evenodd" clip-rule="evenodd" d="M0.292893 0.292893C0.683417 -0.0976311 1.31658 -0.0976311 1.70711 0.292893L8.5 7.08579L12.7929 2.79289C13.1834 2.40237 13.8166 2.40237 14.2071 2.79289L23.7071 12.2929C24.0976 12.6834 24.0976 13.3166 23.7071 13.7071C23.3166 14.0976 22.6834 14.0976 22.2929 13.7071L13.5 4.91421L9.20711 9.20711C8.81658 9.59763 8.18342 9.59763 7.79289 9.20711L0.292893 1.70711C-0.0976311 1.31658 -0.0976311 0.683417 0.292893 0.292893Z" fill="currentColor"/>
<path fill-rule="evenodd" clip-rule="evenodd" d="M23 6C23.5523 6 24 6.44772 24 7V13C24 13.5523 23.5523 14 23 14H17C16.4477 14 16 13.5523 16 13C16 12.4477 16.4477 12 17 12H22V7C22 6.44772 22.4477 6 23 6Z" fill="currentColor"/>
</svg>
