<svg width="20" height="22" viewBox="0 0 20 22" fill="none" xmlns="http://www.w3.org/2000/svg">
<path fill-rule="evenodd" clip-rule="evenodd" d="M2 3.99994L2 4L2 4.00006C2 4.00095 1.99998 4.00521 2.00305 4.01529C2.00645 4.02644 2.01483 4.04845 2.03507 4.08143C2.07752 4.15057 2.16408 4.25453 2.32624 4.38232C2.65642 4.64253 3.19616 4.9206 3.95227 5.17264C5.45402 5.67322 7.59229 6 10 6C12.4077 6 14.546 5.67322 16.0477 5.17264C16.8038 4.9206 17.3436 4.64253 17.6738 4.38232C17.8359 4.25453 17.9225 4.15057 17.9649 4.08143C17.9852 4.04845 17.9935 4.02644 17.9969 4.01529C18 4.00521 18 4.00095 18 4.00006V4C18 3.99927 18.0001 3.99506 17.9969 3.98471C17.9935 3.97356 17.9852 3.95155 17.9649 3.91857C17.9225 3.84943 17.8359 3.74547 17.6738 3.61768C17.3436 3.35747 16.8038 3.0794 16.0477 2.82736C14.546 2.32678 12.4077 2 10 2C7.59229 2 5.45402 2.32678 3.95227 2.82736C3.19616 3.0794 2.65642 3.35747 2.32624 3.61768C2.16408 3.74547 2.07752 3.84943 2.03507 3.91857C2.01483 3.95155 2.00645 3.97356 2.00305 3.98471C1.99998 3.99479 2 3.99905 2 3.99994ZM3.31981 0.929996C5.07541 0.344796 7.43715 0 10 0C12.5629 0 14.9246 0.344796 16.6802 0.929996C17.5528 1.22085 18.331 1.58923 18.9117 2.04685C19.4811 2.49559 20 3.14805 20 4C20 4.85195 19.4811 5.50441 18.9117 5.95315C18.331 6.41077 17.5528 6.77915 16.6802 7.07C14.9246 7.6552 12.5629 8 10 8C7.43715 8 5.07541 7.6552 3.31981 7.07C2.44724 6.77915 1.66896 6.41077 1.08829 5.95315C0.518893 5.50441 0 4.85195 0 4C0 3.14805 0.518893 2.49559 1.08829 2.04685C1.66896 1.58923 2.44724 1.22085 3.31981 0.929996Z" fill="black"/>
<path fill-rule="evenodd" clip-rule="evenodd" d="M1 10C1.55228 10 2 10.4477 2 11C2 11.0019 2.00008 11.007 2.0034 11.018C2.00695 11.0298 2.01544 11.0521 2.03558 11.0851C2.07772 11.1543 2.16348 11.258 2.32419 11.3853C2.65159 11.6447 3.18788 11.9223 3.94167 12.174C5.43891 12.6738 7.57676 13 10 13C12.4232 13 14.5611 12.6738 16.0583 12.174C16.8121 11.9223 17.3484 11.6447 17.6758 11.3853C17.8365 11.258 17.9223 11.1543 17.9644 11.0851C17.9846 11.0521 17.993 11.0298 17.9966 11.018C17.9999 11.007 18 11.0019 18 11C18 10.4477 18.4477 10 19 10C19.5523 10 20 10.4477 20 11C20 11.8494 19.4868 12.502 18.9179 12.9528C18.3391 13.4115 17.5629 13.7802 16.6917 14.071C14.9389 14.6562 12.5768 15 10 15C7.42324 15 5.06109 14.6562 3.30833 14.071C2.43712 13.7802 1.66091 13.4115 1.08206 12.9528C0.513195 12.502 0 11.8494 0 11C0 10.4477 0.447715 10 1 10Z" fill="black"/>
<path fill-rule="evenodd" clip-rule="evenodd" d="M1 3C1.55228 3 2 3.44772 2 4V18C2 18.0019 2.00008 18.007 2.0034 18.018C2.00695 18.0298 2.01544 18.0521 2.03558 18.0851C2.07772 18.1543 2.16348 18.258 2.32419 18.3853C2.65159 18.6447 3.18788 18.9223 3.94167 19.174C5.43891 19.6738 7.57676 20 10 20C12.4232 20 14.5611 19.6738 16.0583 19.174C16.8121 18.9223 17.3484 18.6447 17.6758 18.3853C17.8365 18.258 17.9223 18.1543 17.9644 18.0851C17.9846 18.0521 17.993 18.0298 17.9966 18.018C17.9999 18.007 18 18.0019 18 18V4C18 3.44772 18.4477 3 19 3C19.5523 3 20 3.44772 20 4V18C20 18.8494 19.4868 19.502 18.9179 19.9528C18.3391 20.4115 17.5629 20.7802 16.6917 21.071C14.9389 21.6562 12.5768 22 10 22C7.42324 22 5.06109 21.6562 3.30833 21.071C2.43712 20.7802 1.66091 20.4115 1.08206 19.9528C0.513195 19.502 0 18.8494 0 18V4C0 3.44772 0.447715 3 1 3Z" fill="black"/>
</svg>
