<svg width="24" height="20" viewBox="0 0 24 20" fill="none" xmlns="http://www.w3.org/2000/svg">
<path fill-rule="evenodd" clip-rule="evenodd" d="M1 1C1.55228 1 2 1.44772 2 2V7H7C7.55228 7 8 7.44772 8 8C8 8.55228 7.55228 9 7 9H1C0.447715 9 0 8.55228 0 8V2C0 1.44772 0.447715 1 1 1Z" fill="black"/>
<path fill-rule="evenodd" clip-rule="evenodd" d="M16 12C16 11.4477 16.4477 11 17 11H23C23.5523 11 24 11.4477 24 12V18C24 18.5523 23.5523 19 23 19C22.4477 19 22 18.5523 22 18V13H17C16.4477 13 16 12.5523 16 12Z" fill="black"/>
<path fill-rule="evenodd" clip-rule="evenodd" d="M9.22695 0.396106C10.8497 -0.0732636 12.5648 -0.123919 14.2124 0.248866C15.86 0.621652 17.3863 1.40573 18.6489 2.52793C19.9115 3.65014 20.8692 5.0739 21.4327 6.66636C21.617 7.187 21.3442 7.75843 20.8236 7.94267C20.303 8.12691 19.7315 7.8542 19.5473 7.33355C19.0965 6.05958 18.3303 4.92057 17.3202 4.02281C16.3101 3.12505 15.0891 2.49779 13.771 2.19956C12.453 1.90133 11.0808 1.94185 9.78267 2.31735C8.48451 2.69284 7.30262 3.39107 6.34729 4.34688C6.3399 4.35427 6.3324 4.36155 6.32478 4.36871L1.68478 8.72871C1.2823 9.1069 0.649442 9.08721 0.27125 8.68473C-0.106942 8.28225 -0.0872528 7.64939 0.315226 7.2712L4.9441 2.92165C6.13627 1.73272 7.6094 0.863985 9.22695 0.396106ZM23.7288 11.3152C24.1069 11.7177 24.0873 12.3505 23.6848 12.7287L19.0559 17.0783C17.8637 18.2672 16.3906 19.1359 14.7731 19.6038C13.1503 20.0732 11.4352 20.1238 9.78761 19.751C8.14003 19.3783 6.61373 18.5942 5.35114 17.472C4.08855 16.3498 3.13081 14.926 2.56729 13.3335C2.38305 12.8129 2.65576 12.2415 3.17641 12.0572C3.69705 11.873 4.26848 12.1457 4.45272 12.6664C4.90353 13.9403 5.66973 15.0793 6.6798 15.9771C7.68988 16.8749 8.91091 17.5021 10.229 17.8004C11.547 18.0986 12.9192 18.0581 14.2173 17.6826C15.5155 17.3071 16.6974 16.6088 17.6527 15.653C17.6572 15.6486 17.6616 15.6442 17.6662 15.6398C17.6692 15.6369 17.6722 15.6341 17.6752 15.6312L22.3152 11.2712C22.7177 10.893 23.3506 10.9127 23.7288 11.3152Z" fill="black"/>
</svg>
