<svg viewBox="0 0 248 133" fill="none" xmlns="http://www.w3.org/2000/svg">
<path fill-rule="evenodd" clip-rule="evenodd" d="M218.744 52.2378C217.553 51.0444 217.831 48.9768 219.358 48.2621C220.833 47.5683 222.222 46.6108 223.447 45.3896C229.24 39.603 229.112 30.1564 223.096 24.5328C217.283 19.0931 207.8 19.4955 202.444 25.3862C201.466 26.4651 200.678 27.6516 200.081 28.904C199.348 30.4478 197.294 30.7773 196.086 29.5701L167.315 0.786117C143.393 24.5189 104.755 24.4599 80.9133 0.605711C80.8196 0.515512 80.7363 0.418375 80.646 0.324707L51.7262 29.2023C50.5322 30.3923 50.8099 32.4599 52.3337 33.178C53.8088 33.8719 55.1972 34.8294 56.4224 36.054C62.2085 41.8441 62.0731 51.2907 56.051 56.9108C50.2303 62.3471 40.7477 61.9342 35.399 56.0366C34.4202 54.9577 33.6358 53.7712 33.0422 52.5188C32.3064 50.9716 30.2551 50.6385 29.0437 51.8493L0.113525 80.7408C0.20377 80.831 0.294013 80.9281 0.384257 81.0183C68.6574 149.323 179.373 149.424 247.771 81.275L218.744 52.2378Z" fill="url(#paint0_linear)"/>
<defs>
<linearGradient id="paint0_linear" x1="107.247" y1="120.744" x2="138.117" y2="3.30412" gradientUnits="userSpaceOnUse">
<stop/>
<stop offset="1"/>
</linearGradient>
</defs>
</svg>
