<svg viewBox="0 0 133 248" fill="none" xmlns="http://www.w3.org/2000/svg">
<path fill-rule="evenodd" clip-rule="evenodd" d="M84.0422 219.519C84.6358 220.771 85.4202 221.958 86.399 223.037C91.7477 228.934 101.23 229.347 107.051 223.911C113.073 218.291 113.208 208.844 107.422 203.054C106.197 201.83 104.809 200.872 103.334 200.178C101.81 199.46 101.532 197.392 102.726 196.202L131.646 167.325C108.033 143.405 108.137 104.886 131.955 81.1048C132.004 81.0562 132.052 81.0146 132.101 80.966L103.077 51.9288C101.883 50.7389 99.8141 51.0129 99.0991 52.5359C98.4015 54.0138 97.4435 55.398 96.2182 56.6226C90.4253 62.4093 80.9739 62.2705 75.351 56.2549C69.9155 50.437 70.3251 40.9592 76.2257 35.6097C77.3052 34.6348 78.4957 33.8473 79.7487 33.2541C81.2932 32.5221 81.6265 30.4718 80.4186 29.261L51.6446 0.477051C51.5994 0.52215 51.5509 0.567253 51.5023 0.615822C-16.7917 68.8099 -16.9306 179.366 51.1135 247.741L80.0437 218.849C81.2551 217.639 83.3064 217.972 84.0422 219.519Z" fill="url(#paint0_linear)"/>
<defs>
<linearGradient id="paint0_linear" x1="6.0192" y1="124.109" x2="141.549" y2="124.109" gradientUnits="userSpaceOnUse">
<stop/>
<stop offset="1"/>
</linearGradient>
</defs>
</svg>
