<svg viewBox="0 0 133 249" fill="none" xmlns="http://www.w3.org/2000/svg">
<path fill-rule="evenodd" clip-rule="evenodd" d="M48.1409 29.0039C47.4467 27.526 46.4887 26.1383 45.2635 24.9137C39.474 19.1236 30.0261 19.252 24.3963 25.2641C18.9538 31.0785 19.3565 40.5528 25.2501 45.9058C26.3296 46.8841 27.5166 47.6716 28.7731 48.2684C30.3177 49.0004 30.6474 51.0541 29.436 52.2614L0.505838 81.1495C24.3893 105.049 24.3685 143.772 0.460736 167.647C0.415614 167.696 0.363534 167.737 0.314941 167.786L29.0855 196.57C30.2934 197.777 32.3482 197.448 33.0805 195.904C33.6775 194.651 34.4654 193.465 35.4442 192.386C40.7999 186.495 50.2825 186.093 56.0963 191.533C62.1114 197.156 62.2398 206.603 56.4468 212.389C55.2216 213.611 53.8332 214.568 52.3581 215.262C50.8309 215.977 50.5532 218.044 51.7437 219.238L80.7711 248.275C80.8162 248.23 80.8648 248.185 80.9134 248.136C149.298 179.852 149.353 69.0905 81.0349 0.736816L52.1151 29.6145C50.9246 30.8044 48.8559 30.5269 48.1409 29.0039Z" fill="url(#paint0_linear)"/>
<defs>
<linearGradient id="paint0_linear" x1="108.476" y1="254.426" x2="33.7539" y2="108.009" gradientUnits="userSpaceOnUse">
<stop/>
<stop offset="1"/>
</linearGradient>
</defs>
</svg>
