<svg viewBox="0 0 249 133" fill="none" xmlns="http://www.w3.org/2000/svg">
<path fill-rule="evenodd" clip-rule="evenodd" d="M28.7487 84.2538C27.4956 84.847 26.3051 85.6345 25.2257 86.6094C19.3251 91.9589 18.9155 101.437 24.351 107.255C29.9739 113.27 39.4252 113.409 45.2182 107.622C46.4435 106.398 47.4014 105.013 48.0991 103.536C48.8141 102.013 50.8828 101.739 52.0768 102.928L81.1007 131.966C105.022 108.233 143.661 108.295 167.503 132.143C167.503 132.146 167.506 132.15 167.506 132.15L196.436 103.262C197.648 102.054 197.318 100 195.773 99.2685C194.517 98.6718 193.33 97.8843 192.25 96.906C186.357 91.553 185.954 82.0786 191.396 76.2642C197.026 70.2521 206.474 70.1237 212.264 75.9138C213.489 77.1385 214.447 78.5261 215.141 80.004C215.856 81.527 217.925 81.8045 219.115 80.6146L248.035 51.7369L248.032 51.7335C179.758 -16.5716 69.0427 -16.6688 0.644531 51.4768L29.4185 80.2607C30.6264 81.4715 30.2932 83.5218 28.7487 84.2538Z" fill="url(#paint0_linear)"/>
<defs>
<linearGradient id="paint0_linear" x1="174.875" y1="17.9088" x2="47.0654" y2="75.5903" gradientUnits="userSpaceOnUse">
<stop stop-color="#217F9C"/>
<stop offset="1" stop-color="#52BDBD"/>
</linearGradient>
</defs>
</svg>
